<svg width="150" height="43" viewBox="0 0 150 43" fill="none" xmlns="http://www.w3.org/2000/svg">
<path d="M149.167 38.0412C149.167 40.3327 147.258 42.1889 144.896 42.1889H5.11101C2.75023 42.1889 0.833984 40.3327 0.833984 38.0412V4.96464C0.833984 2.6742 2.75023 0.811523 5.11101 0.811523H144.895C147.258 0.811523 149.166 2.6742 149.166 4.96464L149.167 38.0412Z" fill="black"/>
<path d="M144.444 0.861347C147.017 0.861347 149.11 2.88638 149.11 5.375V37.625C149.11 40.1136 147.017 42.1387 144.444 42.1387H5.55556C2.98333 42.1387 0.890277 40.1136 0.890277 37.625V5.375C0.890277 2.88638 2.98333 0.861347 5.55556 0.861347H144.444ZM144.444 4.63461e-06H5.55556C2.50139 4.63461e-06 0 2.4201 0 5.375V37.625C0 40.5799 2.50139 43 5.55556 43H144.444C147.499 43 150 40.5799 150 37.625V5.375C150 2.4201 147.499 4.63461e-06 144.444 4.63461e-06Z" fill="#A6A6A6"/>
<path d="M33.4733 21.272C33.441 17.8073 36.4055 16.1217 36.541 16.0432C34.8622 13.675 32.2599 13.3514 31.3455 13.3256C29.1599 13.1031 27.0399 14.5909 25.9266 14.5909C24.791 14.5909 23.0766 13.3471 21.2288 13.3837C18.851 13.4191 16.6266 14.7511 15.4066 16.8194C12.8888 21.0366 14.7666 27.234 17.1788 30.6428C18.3855 32.3123 19.7955 34.1763 21.641 34.1107C23.4466 34.0387 24.121 32.997 26.2999 32.997C28.4588 32.997 29.0922 34.1107 30.9744 34.0688C32.9122 34.0387 34.1322 32.3918 35.2966 30.7073C36.691 28.7938 37.251 26.9093 37.2733 26.8126C37.2277 26.7975 33.5099 25.4247 33.4733 21.272Z" fill="white"/>
<path d="M29.9177 11.0832C30.8888 9.9082 31.5533 8.30967 31.3688 6.6875C29.9633 6.7477 28.2055 7.62813 27.1933 8.7773C26.2977 9.78995 25.4977 11.4497 25.7044 13.0106C27.2833 13.1246 28.9044 12.2399 29.9177 11.0832Z" fill="white"/>
<path d="M59.6044 33.8686H57.0811L55.6989 29.6664H50.8944L49.5778 33.8686H47.1211L51.8811 19.5625H54.8211L59.6044 33.8686ZM55.2822 27.9034L54.0322 24.1678C53.9 23.7862 53.6522 22.8875 53.2866 21.4728H53.2422C53.0966 22.0812 52.8622 22.9799 52.54 24.1678L51.3122 27.9034H55.2822V27.9034Z" fill="white"/>
<path d="M71.8459 28.5846C71.8459 30.339 71.3559 31.7257 70.3759 32.7437C69.4981 33.65 68.4081 34.1025 67.107 34.1025C65.7026 34.1025 64.6937 33.6145 64.0792 32.6384H64.0348V38.0725H61.6659V26.9495C61.6659 25.8465 61.6359 24.7146 61.5781 23.5536H63.6615L63.7937 25.1886H63.8381C64.6281 23.9567 65.827 23.3418 67.4359 23.3418C68.6937 23.3418 69.7437 23.8223 70.5837 24.7844C71.4259 25.7476 71.8459 27.014 71.8459 28.5846ZM69.4326 28.6684C69.4326 27.6644 69.1992 26.8366 68.7303 26.1852C68.2181 25.5058 67.5303 25.1661 66.6681 25.1661C66.0837 25.1661 65.5526 25.3553 65.0781 25.7283C64.6026 26.1045 64.2915 26.5958 64.1459 27.2043C64.0726 27.4881 64.0359 27.7203 64.0359 27.903V29.623C64.0359 30.3734 64.2737 31.0065 64.7492 31.5236C65.2248 32.0407 65.8426 32.2987 66.6026 32.2987C67.4948 32.2987 68.1892 31.9654 68.6859 31.3011C69.1837 30.6357 69.4326 29.7585 69.4326 28.6684Z" fill="white"/>
<path d="M84.1085 28.5846C84.1085 30.339 83.6185 31.7257 82.6374 32.7437C81.7607 33.65 80.6707 34.1025 79.3696 34.1025C77.9651 34.1025 76.9562 33.6145 76.3429 32.6384H76.2985V38.0725H73.9296V26.9495C73.9296 25.8465 73.8996 24.7146 73.8418 23.5536H75.9251L76.0574 25.1886H76.1018C76.8907 23.9567 78.0896 23.3418 79.6996 23.3418C80.9562 23.3418 82.0062 23.8223 82.8485 24.7844C83.6874 25.7476 84.1085 27.014 84.1085 28.5846ZM81.6951 28.6684C81.6951 27.6644 81.4607 26.8366 80.9918 26.1852C80.4796 25.5058 79.794 25.1661 78.9307 25.1661C78.3451 25.1661 77.8151 25.3553 77.3396 25.7283C76.864 26.1045 76.554 26.5958 76.4085 27.2043C76.3362 27.4881 76.2985 27.7203 76.2985 27.903V29.623C76.2985 30.3734 76.5362 31.0065 77.0096 31.5236C77.4851 32.0396 78.1029 32.2987 78.8651 32.2987C79.7574 32.2987 80.4518 31.9654 80.9485 31.3011C81.4462 30.6357 81.6951 29.7585 81.6951 28.6684Z" fill="white"/>
<path d="M97.8179 29.8564C97.8179 31.0733 97.3812 32.0633 96.5045 32.8277C95.5412 33.6629 94.2001 34.08 92.4768 34.08C90.8856 34.08 89.6101 33.7833 88.6445 33.1889L89.1934 31.2786C90.2334 31.887 91.3745 32.1923 92.6179 32.1923C93.5101 32.1923 94.2045 31.9967 94.7034 31.6075C95.2001 31.2184 95.4479 30.6959 95.4479 30.0445C95.4479 29.464 95.2434 28.9749 94.8334 28.5782C94.4256 28.1815 93.7445 27.8128 92.7934 27.472C90.2045 26.5378 88.9112 25.1694 88.9112 23.3698C88.9112 22.1938 89.3645 21.2295 90.2723 20.4791C91.1768 19.7277 92.3834 19.3525 93.8923 19.3525C95.2379 19.3525 96.3556 19.5794 97.2479 20.0319L96.6556 21.9003C95.8223 21.4617 94.8801 21.2424 93.8256 21.2424C92.9923 21.2424 92.3412 21.4413 91.8745 21.8369C91.4801 22.1905 91.2823 22.6216 91.2823 23.1322C91.2823 23.6977 91.5079 24.1653 91.9612 24.533C92.3556 24.8727 93.0723 25.2403 94.1123 25.637C95.3845 26.1326 96.319 26.712 96.9201 27.3763C97.519 28.0385 97.8179 28.8674 97.8179 29.8564Z" fill="white"/>
<path d="M105.653 25.2747H103.042V30.2831C103.042 31.557 103.502 32.1934 104.425 32.1934C104.848 32.1934 105.199 32.1579 105.477 32.087L105.542 33.8274C105.076 33.9962 104.461 34.0811 103.7 34.0811C102.765 34.0811 102.033 33.8048 101.506 33.2534C100.98 32.7008 100.716 31.7742 100.716 30.4723V25.2726H99.1602V23.5526H100.716V21.6638L103.042 20.9844V23.5526H105.653V25.2747Z" fill="white"/>
<path d="M117.432 28.6254C117.432 30.211 116.963 31.5129 116.027 32.5309C115.046 33.579 113.744 34.1015 112.121 34.1015C110.556 34.1015 109.31 33.5994 108.382 32.5954C107.453 31.5913 106.988 30.3239 106.988 28.7963C106.988 27.1978 107.466 25.8885 108.425 24.8704C109.382 23.8513 110.673 23.3418 112.296 23.3418C113.861 23.3418 115.119 23.8438 116.069 24.8489C116.978 25.824 117.432 27.0828 117.432 28.6254ZM114.974 28.6996C114.974 27.7482 114.764 26.9323 114.338 26.2518C113.842 25.4284 113.132 25.0177 112.212 25.0177C111.259 25.0177 110.536 25.4294 110.039 26.2518C109.614 26.9334 109.404 27.7622 109.404 28.7426C109.404 29.694 109.614 30.5099 110.039 31.1893C110.552 32.0127 111.267 32.4234 112.191 32.4234C113.095 32.4234 113.805 32.0041 114.317 31.1678C114.754 30.4744 114.974 29.6499 114.974 28.6996Z" fill="white"/>
<path d="M125.134 25.5692C124.9 25.5273 124.65 25.5058 124.387 25.5058C123.554 25.5058 122.91 25.81 122.456 26.4195C122.062 26.957 121.864 27.6364 121.864 28.4566V33.8693H119.496L119.519 26.8022C119.519 25.6133 119.489 24.5307 119.43 23.5546H121.493L121.58 25.5283H121.645C121.895 24.85 122.29 24.3039 122.83 23.8943C123.357 23.5256 123.927 23.3418 124.542 23.3418C124.761 23.3418 124.959 23.3568 125.134 23.3837V25.5692Z" fill="white"/>
<path d="M135.727 28.2232C135.727 28.6338 135.7 28.98 135.641 29.2627H128.534C128.562 30.2818 128.905 31.0612 129.565 31.5987C130.164 32.0792 130.939 32.32 131.89 32.32C132.942 32.32 133.902 32.1577 134.765 31.832L135.136 33.423C134.128 33.8487 132.936 34.0604 131.562 34.0604C129.909 34.0604 128.611 33.5896 127.666 32.649C126.724 31.7083 126.252 30.4452 126.252 28.8607C126.252 27.3051 126.691 26.0098 127.57 24.9767C128.49 23.8737 129.733 23.3223 131.298 23.3223C132.834 23.3223 133.997 23.8737 134.787 24.9767C135.413 25.8528 135.727 26.9364 135.727 28.2232ZM133.469 27.6287C133.484 26.9493 133.33 26.3624 133.009 25.8668C132.599 25.2293 131.969 24.9111 131.121 24.9111C130.346 24.9111 129.716 25.2218 129.235 25.8453C128.841 26.3409 128.606 26.9353 128.534 27.6276H133.469V27.6287Z" fill="white"/>
<path d="M54.4985 10.7645C54.4985 12.0298 54.1062 12.9822 53.3229 13.6218C52.5973 14.212 51.5662 14.5076 50.2307 14.5076C49.5685 14.5076 49.0018 14.4797 48.5273 14.4238V7.51046C49.1462 7.41371 49.8129 7.36426 50.5329 7.36426C51.8051 7.36426 52.764 7.63193 53.4107 8.16728C54.1351 8.77251 54.4985 9.63788 54.4985 10.7645ZM53.2707 10.7957C53.2707 9.97543 53.0462 9.34656 52.5973 8.90796C52.1485 8.47043 51.4929 8.25113 50.6296 8.25113C50.2629 8.25113 49.9507 8.27478 49.6918 8.32423V13.5799C49.8351 13.6014 50.0973 13.6111 50.4785 13.6111C51.3696 13.6111 52.0573 13.3714 52.5418 12.8919C53.0262 12.4125 53.2707 11.7137 53.2707 10.7957Z" fill="white"/>
<path d="M61.0089 11.8704C61.0089 12.6498 60.7789 13.2884 60.3189 13.7893C59.8367 14.3042 59.1978 14.5612 58.4 14.5612C57.6311 14.5612 57.0189 14.315 56.5622 13.8205C56.1067 13.3271 55.8789 12.7046 55.8789 11.9543C55.8789 11.1695 56.1133 10.5256 56.5845 10.0257C57.0556 9.52587 57.6889 9.27539 58.4867 9.27539C59.2556 9.27539 59.8734 9.52157 60.3411 10.015C60.7856 10.4944 61.0089 11.1136 61.0089 11.8704ZM59.8011 11.907C59.8011 11.4394 59.6967 11.0384 59.4889 10.7041C59.2445 10.2999 58.8967 10.0978 58.4445 10.0978C57.9767 10.0978 57.6211 10.2999 57.3767 10.7041C57.1678 11.0384 57.0645 11.4458 57.0645 11.9274C57.0645 12.395 57.1689 12.796 57.3767 13.1303C57.6289 13.5345 57.98 13.7366 58.4334 13.7366C58.8778 13.7366 59.2267 13.5313 59.4778 13.1196C59.6934 12.7788 59.8011 12.3746 59.8011 11.907Z" fill="white"/>
<path d="M69.7373 9.37793L68.0984 14.4455H67.0318L66.3529 12.245C66.1807 11.6956 66.0407 11.1495 65.9318 10.6077H65.9107C65.8095 11.1646 65.6695 11.7096 65.4895 12.245L64.7684 14.4455H63.6895L62.1484 9.37793H63.3451L63.9373 11.787C64.0807 12.3568 64.1984 12.8996 64.2929 13.4135H64.314C64.4007 12.9899 64.544 12.4503 64.7462 11.7978L65.4895 9.37901H66.4384L67.1507 11.7462C67.3229 12.3234 67.4629 12.8792 67.5707 13.4146H67.6029C67.6818 12.8932 67.8007 12.3374 67.9584 11.7462L68.594 9.37901H69.7373V9.37793Z" fill="white"/>
<path d="M75.7747 14.4455H74.6103V11.543C74.6103 10.6486 74.2591 10.2014 73.5547 10.2014C73.2091 10.2014 72.9303 10.3239 72.7136 10.5701C72.4991 10.8163 72.3903 11.1065 72.3903 11.4387V14.4444H71.2258V10.8259C71.2258 10.3809 71.2114 9.89821 71.1836 9.37576H72.2069L72.2614 10.168H72.2936C72.4291 9.92186 72.6314 9.71868 72.8969 9.55636C73.2125 9.36716 73.5658 9.27148 73.9525 9.27148C74.4414 9.27148 74.848 9.42413 75.1714 9.73051C75.5736 10.1057 75.7747 10.6658 75.7747 11.4097V14.4455V14.4455Z" fill="white"/>
<path d="M78.9856 14.4445H77.8223V7.05176H78.9856V14.4445Z" fill="white"/>
<path d="M85.8409 11.8704C85.8409 12.6498 85.6109 13.2884 85.1509 13.7893C84.6687 14.3042 84.0287 14.5612 83.2321 14.5612C82.4621 14.5612 81.8498 14.315 81.3943 13.8205C80.9387 13.3271 80.7109 12.7046 80.7109 11.9543C80.7109 11.1695 80.9454 10.5256 81.4165 10.0257C81.8876 9.52587 82.5209 9.27539 83.3176 9.27539C84.0876 9.27539 84.7043 9.52157 85.1732 10.015C85.6176 10.4944 85.8409 11.1136 85.8409 11.8704ZM84.632 11.907C84.632 11.4394 84.5276 11.0384 84.3198 10.7041C84.0765 10.2999 83.7276 10.0978 83.2765 10.0978C82.8076 10.0978 82.452 10.2999 82.2087 10.7041C81.9998 11.0384 81.8965 11.4458 81.8965 11.9274C81.8965 12.395 82.0009 12.796 82.2087 13.1303C82.4609 13.5345 82.8121 13.7366 83.2654 13.7366C83.7098 13.7366 84.0576 13.5313 84.3087 13.1196C84.5254 12.7788 84.632 12.3746 84.632 11.907Z" fill="white"/>
<path d="M91.4758 14.4461H90.4302L90.3436 13.8624H90.3113C89.9536 14.3279 89.4436 14.5612 88.7813 14.5612C88.2869 14.5612 87.8869 14.4074 87.5858 14.1021C87.3125 13.8248 87.1758 13.4797 87.1758 13.0701C87.1758 12.4509 87.4424 11.979 87.9791 11.6522C88.5147 11.3254 89.268 11.1652 90.238 11.1728V11.0782C90.238 10.4106 89.8758 10.0773 89.1502 10.0773C88.6336 10.0773 88.178 10.2031 87.7847 10.4525L87.548 9.71292C88.0347 9.42159 88.6358 9.27539 89.3447 9.27539C90.7136 9.27539 91.4002 9.97414 91.4002 11.3716V13.2378C91.4002 13.7442 91.4258 14.1473 91.4758 14.4461ZM90.2669 12.7046V11.9231C88.9824 11.9016 88.3402 12.2424 88.3402 12.9444C88.3402 13.2088 88.4136 13.4066 88.5636 13.5388C88.7136 13.6711 88.9047 13.7366 89.1324 13.7366C89.388 13.7366 89.6269 13.6582 89.8447 13.5023C90.0636 13.3453 90.198 13.1465 90.248 12.9024C90.2602 12.8476 90.2669 12.781 90.2669 12.7046Z" fill="white"/>
<path d="M98.0937 14.4445H97.0604L97.006 13.6308H96.9737C96.6437 14.25 96.0815 14.5596 95.2915 14.5596C94.6604 14.5596 94.1349 14.3198 93.7182 13.8404C93.3015 13.3609 93.0938 12.7385 93.0938 11.9742C93.0938 11.154 93.3193 10.4896 93.7726 9.98221C94.2115 9.50921 94.7493 9.27271 95.3893 9.27271C96.0926 9.27271 96.5849 9.50168 96.8649 9.96071H96.8871V7.05176H98.0526V13.0793C98.0526 13.5727 98.066 14.0274 98.0937 14.4445ZM96.8871 12.3074V11.4625C96.8871 11.3163 96.876 11.198 96.8548 11.1077C96.7893 10.8368 96.6482 10.6089 96.4337 10.4251C96.2171 10.2413 95.956 10.1488 95.6548 10.1488C95.2204 10.1488 94.8804 10.3155 94.6304 10.6498C94.3826 10.9841 94.2571 11.4109 94.2571 11.9323C94.2571 12.4332 94.376 12.8396 94.6149 13.1524C94.8671 13.4856 95.2071 13.6523 95.6326 13.6523C96.0149 13.6523 96.3204 13.5136 96.5526 13.2352C96.7771 12.9782 96.8871 12.6686 96.8871 12.3074Z" fill="white"/>
<path d="M108.052 11.8704C108.052 12.6498 107.822 13.2884 107.362 13.7893C106.88 14.3042 106.242 14.5612 105.443 14.5612C104.675 14.5612 104.063 14.315 103.605 13.8205C103.15 13.3271 102.922 12.7046 102.922 11.9543C102.922 11.1695 103.156 10.5256 103.627 10.0257C104.099 9.52587 104.732 9.27539 105.531 9.27539C106.299 9.27539 106.917 9.52157 107.384 10.015C107.829 10.4944 108.052 11.1136 108.052 11.8704ZM106.845 11.907C106.845 11.4394 106.741 11.0384 106.533 10.7041C106.287 10.2999 105.941 10.0978 105.487 10.0978C105.021 10.0978 104.665 10.2999 104.42 10.7041C104.211 11.0384 104.107 11.4458 104.107 11.9274C104.107 12.395 104.212 12.796 104.42 13.1303C104.672 13.5345 105.023 13.7366 105.476 13.7366C105.921 13.7366 106.271 13.5313 106.522 13.1196C106.736 12.7788 106.845 12.3746 106.845 11.907Z" fill="white"/>
<path d="M114.315 14.4455H113.151V11.543C113.151 10.6486 112.8 10.2014 112.095 10.2014C111.749 10.2014 111.47 10.3239 111.255 10.5701C111.039 10.8163 110.931 11.1065 110.931 11.4387V14.4444H109.766V10.8259C109.766 10.3809 109.752 9.89821 109.725 9.37576H110.747L110.801 10.168H110.833C110.97 9.92186 111.172 9.71868 111.437 9.55636C111.753 9.36716 112.106 9.27148 112.493 9.27148C112.981 9.27148 113.388 9.42413 113.711 9.73051C114.115 10.1057 114.315 10.6658 114.315 11.4097V14.4455V14.4455Z" fill="white"/>
<path d="M122.151 10.2212H120.869V12.6829C120.869 13.3086 121.096 13.6214 121.548 13.6214C121.756 13.6214 121.93 13.6042 122.066 13.5687L122.096 14.4233C121.866 14.5072 121.564 14.5491 121.192 14.5491C120.732 14.5491 120.374 14.4137 120.115 14.1428C119.855 13.8719 119.726 13.4161 119.726 12.7764V10.2212H118.961V9.37728H119.726V8.44848L120.868 8.11523V9.37621H122.15V10.2212H122.151Z" fill="white"/>
<path d="M128.315 14.4445H127.149V11.5635C127.149 10.6552 126.798 10.2004 126.095 10.2004C125.555 10.2004 125.186 10.4638 124.983 10.9906C124.949 11.1013 124.929 11.2367 124.929 11.3958V14.4435H123.766V7.05176H124.929V10.1058H124.951C125.318 9.55006 125.843 9.27271 126.525 9.27271C127.007 9.27271 127.406 9.42536 127.722 9.73173C128.117 10.1134 128.315 10.681 128.315 11.4313V14.4445V14.4445Z" fill="white"/>
<path d="M134.672 11.6716C134.672 11.8737 134.657 12.0435 134.629 12.1822H131.137C131.152 12.6831 131.319 13.0648 131.642 13.3292C131.938 13.5657 132.319 13.684 132.786 13.684C133.302 13.684 133.773 13.6044 134.198 13.4442L134.38 14.2268C133.883 14.4354 133.299 14.5397 132.622 14.5397C131.811 14.5397 131.172 14.3085 130.71 13.8463C130.246 13.384 130.016 12.7638 130.016 11.9855C130.016 11.2211 130.23 10.5847 130.662 10.0773C131.113 9.53555 131.723 9.26465 132.493 9.26465C133.247 9.26465 133.819 9.53555 134.206 10.0773C134.518 10.5073 134.672 11.0395 134.672 11.6716ZM133.561 11.3802C133.57 11.0459 133.493 10.7578 133.336 10.5149C133.133 10.202 132.826 10.0451 132.409 10.0451C132.029 10.0451 131.719 10.1977 131.482 10.5041C131.289 10.7481 131.175 11.0395 131.137 11.3802H133.561Z" fill="white"/>
</svg>
