<svg width="11" height="8" viewBox="0 0 11 8" fill="none" xmlns="http://www.w3.org/2000/svg">
<path fill-rule="evenodd" clip-rule="evenodd" d="M10.7971 1.11198C10.7971 0.743789 10.5235 0.445312 10.186 0.445312H9.57487C9.23736 0.445312 8.96376 0.743789 8.96376 1.11198V6.88976C8.96376 7.25795 9.23736 7.55642 9.57487 7.55642H10.186C10.5235 7.55642 10.7971 7.25795 10.7971 6.88976V1.11198ZM6.72302 2.00087H7.33413C7.67164 2.00087 7.94524 2.29934 7.94524 2.66753V6.88976C7.94524 7.25795 7.67164 7.55642 7.33413 7.55642H6.72302C6.38551 7.55642 6.11191 7.25795 6.11191 6.88976V2.66753C6.11191 2.29934 6.38551 2.00087 6.72302 2.00087ZM4.48228 3.55642H3.87117C3.53366 3.55642 3.26005 3.8549 3.26005 4.22309V6.88976C3.26005 7.25795 3.53366 7.55642 3.87117 7.55642H4.48228C4.81978 7.55642 5.09339 7.25795 5.09339 6.88976V4.22309C5.09339 3.8549 4.81978 3.55642 4.48228 3.55642ZM2.24154 5.55642C2.24154 5.18823 1.96793 4.88976 1.63043 4.88976H1.01931C0.681807 4.88976 0.408203 5.18823 0.408203 5.55642V6.88976C0.408203 7.25795 0.681807 7.55642 1.01931 7.55642H1.63043C1.96793 7.55642 2.24154 7.25795 2.24154 6.88976V5.55642Z" fill="white"/>
</svg>
