<svg width="18" height="18" viewBox="0 0 18 18" fill="none" xmlns="http://www.w3.org/2000/svg">
<path d="M16.501 4.87622H12.001" stroke="white" stroke-miterlimit="10" stroke-linecap="round" stroke-linejoin="round"/>
<path d="M4.49902 4.87622H1.49902" stroke="white" stroke-miterlimit="10" stroke-linecap="round" stroke-linejoin="round"/>
<path d="M7.49902 7.5C8.94877 7.5 10.124 6.32475 10.124 4.875C10.124 3.42525 8.94877 2.25 7.49902 2.25C6.04928 2.25 4.87402 3.42525 4.87402 4.875C4.87402 6.32475 6.04928 7.5 7.49902 7.5Z" stroke="white" stroke-miterlimit="10" stroke-linecap="round" stroke-linejoin="round"/>
<path d="M16.5 13.1238H13.5" stroke="white" stroke-miterlimit="10" stroke-linecap="round" stroke-linejoin="round"/>
<path d="M5.99902 13.1238H1.49902" stroke="white" stroke-miterlimit="10" stroke-linecap="round" stroke-linejoin="round"/>
<path d="M10.5 15.7512C11.9497 15.7512 13.125 14.576 13.125 13.1262C13.125 11.6765 11.9497 10.5012 10.5 10.5012C9.05025 10.5012 7.875 11.6765 7.875 13.1262C7.875 14.576 9.05025 15.7512 10.5 15.7512Z" stroke="white" stroke-miterlimit="10" stroke-linecap="round" stroke-linejoin="round"/>
</svg>
