<svg width="150" height="43" viewBox="0 0 150 43" fill="none" xmlns="http://www.w3.org/2000/svg">
<path d="M144.444 43H5.55556C2.50139 43 0 40.5799 0 37.625V5.375C0 2.4201 2.50139 4.63461e-06 5.55556 4.63461e-06H144.444C147.499 4.63461e-06 150 2.4201 150 5.375V37.625C150 40.5799 147.499 43 144.444 43Z" fill="black"/>
<path d="M144.444 0.861347C147.017 0.861347 149.11 2.88638 149.11 5.375V37.625C149.11 40.1136 147.017 42.1387 144.444 42.1387H5.55556C2.98333 42.1387 0.890277 40.1136 0.890277 37.625V5.375C0.890277 2.88638 2.98333 0.861347 5.55556 0.861347H144.444ZM144.444 4.63461e-06H5.55556C2.50139 4.63461e-06 0 2.4201 0 5.375V37.625C0 40.5799 2.50139 43 5.55556 43H144.444C147.499 43 150 40.5799 150 37.625V5.375C150 2.4201 147.499 4.63461e-06 144.444 4.63461e-06Z" fill="#A6A6A6"/>
<path d="M52.6842 11.015C52.6842 11.9126 52.4064 12.6315 51.8592 13.1677C51.23 13.8033 50.4106 14.1231 49.4064 14.1231C48.4467 14.1231 47.6273 13.7979 46.955 13.1569C46.2814 12.5065 45.9453 11.7083 45.9453 10.7529C45.9453 9.79753 46.2814 8.99934 46.955 8.35434C47.6273 7.708 48.4467 7.38281 49.4064 7.38281C49.8842 7.38281 50.3398 7.47822 50.7745 7.65559C51.2078 7.83431 51.5606 8.07619 51.8161 8.3745L51.2356 8.94156C50.7898 8.43228 50.1828 8.181 49.4064 8.181C48.7064 8.181 48.0995 8.4175 47.5842 8.89453C47.0745 9.37291 46.8189 9.99238 46.8189 10.7529C46.8189 11.5135 47.0745 12.1383 47.5842 12.6167C48.0995 13.0884 48.7064 13.3303 49.4064 13.3303C50.1495 13.3303 50.7745 13.0884 51.2675 12.6113C51.5925 12.2956 51.7773 11.8602 51.8259 11.3039H49.4064V10.5272H52.6342C52.6731 10.6952 52.6842 10.8578 52.6842 11.015V11.015Z" fill="white" stroke="white" stroke-width="0.16" stroke-miterlimit="10"/>
<path d="M57.8082 8.32272H54.7763V10.3652H57.5096V11.1419H54.7763V13.1844H57.8082V13.9759H53.918V7.53125H57.8082V8.32272Z" fill="white" stroke="white" stroke-width="0.16" stroke-miterlimit="10"/>
<path d="M61.4173 13.9759H60.5589V8.32272H58.6992V7.53125H63.2784V8.32272H61.4173V13.9759V13.9759Z" fill="white" stroke="white" stroke-width="0.16" stroke-miterlimit="10"/>
<path d="M66.5957 13.9759V7.53125H67.4526V13.9759H66.5957Z" fill="white" stroke="white" stroke-width="0.16" stroke-miterlimit="10"/>
<path d="M71.2512 13.9759H70.3999V8.32272H68.5332V7.53125H73.1179V8.32272H71.2512V13.9759Z" fill="white" stroke="white" stroke-width="0.16" stroke-miterlimit="10"/>
<path d="M81.7849 13.1462C81.128 13.7979 80.3141 14.1231 79.3432 14.1231C78.3668 14.1231 77.553 13.7979 76.896 13.1462C76.2405 12.4958 75.9141 11.6976 75.9141 10.7529C75.9141 9.80828 76.2405 9.01009 76.896 8.35972C77.553 7.708 78.3668 7.38281 79.3432 7.38281C80.3085 7.38281 81.1224 7.708 81.7793 8.36509C82.4405 9.02084 82.7668 9.81366 82.7668 10.7529C82.7668 11.6976 82.4405 12.4958 81.7849 13.1462ZM77.5307 12.606C78.0252 13.0884 78.6266 13.3303 79.3432 13.3303C80.0543 13.3303 80.6613 13.0884 81.1502 12.606C81.6432 12.1236 81.8932 11.5041 81.8932 10.7529C81.8932 10.0018 81.6432 9.38231 81.1502 8.89991C80.6613 8.4175 80.0543 8.17563 79.3432 8.17563C78.6266 8.17563 78.0252 8.4175 77.5307 8.89991C77.0377 9.38231 76.7877 10.0018 76.7877 10.7529C76.7877 11.5041 77.0377 12.1236 77.5307 12.606V12.606Z" fill="white" stroke="white" stroke-width="0.16" stroke-miterlimit="10"/>
<path d="M83.9727 13.9759V7.53125H85.0143L88.2532 12.5434H88.2907L88.2532 11.3045V7.53125H89.1102V13.9759H88.2157L84.824 8.71644H84.7865L84.824 9.96075V13.9759H83.9727V13.9759Z" fill="white" stroke="white" stroke-width="0.16" stroke-miterlimit="10"/>
<path d="M75.7052 23.3825C73.0954 23.3825 70.9635 25.304 70.9635 27.9552C70.9635 30.585 73.0954 32.5267 75.7052 32.5267C78.3204 32.5267 80.4524 30.585 80.4524 27.9552C80.4524 25.304 78.3204 23.3825 75.7052 23.3825ZM75.7052 30.7261C74.2732 30.7261 73.0413 29.5825 73.0413 27.9552C73.0413 26.3065 74.2732 25.1831 75.7052 25.1831C77.1371 25.1831 78.3746 26.3065 78.3746 27.9552C78.3746 29.5825 77.1371 30.7261 75.7052 30.7261V30.7261ZM65.3593 23.3825C62.744 23.3825 60.6177 25.304 60.6177 27.9552C60.6177 30.585 62.744 32.5267 65.3593 32.5267C67.9732 32.5267 70.101 30.585 70.101 27.9552C70.101 25.304 67.9732 23.3825 65.3593 23.3825ZM65.3593 30.7261C63.926 30.7261 62.6899 29.5825 62.6899 27.9552C62.6899 26.3065 63.926 25.1831 65.3593 25.1831C66.7913 25.1831 68.0232 26.3065 68.0232 27.9552C68.0232 29.5825 66.7913 30.7261 65.3593 30.7261ZM53.0482 24.784V26.7271H57.844C57.7038 27.8128 57.3288 28.611 56.7538 29.1673C56.0538 29.8392 54.9635 30.585 53.0482 30.585C50.0968 30.585 47.7857 28.2804 47.7857 25.425C47.7857 22.5695 50.0968 20.265 53.0482 20.265C54.644 20.265 55.8052 20.8683 56.6621 21.6504L58.0774 20.2811C56.8788 19.1738 55.2843 18.3232 53.0482 18.3232C49.001 18.3232 45.5996 21.5093 45.5996 25.425C45.5996 29.3407 49.001 32.5267 53.0482 32.5267C55.2357 32.5267 56.8788 31.8333 58.1704 30.5326C59.494 29.252 59.9065 27.4513 59.9065 25.9974C59.9065 25.5459 59.8677 25.1307 59.7982 24.784H53.0482ZM103.39 26.2903C103 25.2677 101.795 23.3825 99.3426 23.3825C96.9121 23.3825 94.8885 25.2355 94.8885 27.9552C94.8885 30.5164 96.8913 32.5267 99.576 32.5267C101.747 32.5267 103 31.2461 103.515 30.5003L101.904 29.4616C101.366 30.2221 100.634 30.7261 99.576 30.7261C98.5246 30.7261 97.7704 30.2598 97.2871 29.3406L103.608 26.8104L103.39 26.2903V26.2903ZM96.9454 27.8128C96.8913 26.0498 98.3607 25.1468 99.4135 25.1468C100.238 25.1468 100.938 25.5459 101.172 26.117L96.9454 27.8128V27.8128ZM91.8079 32.2485H93.8857V18.811H91.8079V32.2485ZM88.4051 24.401H88.3357C87.869 23.8662 86.9788 23.3825 85.851 23.3825C83.4843 23.3825 81.3204 25.3927 81.3204 27.97C81.3204 30.5326 83.4843 32.5267 85.851 32.5267C86.9788 32.5267 87.869 32.0389 88.3357 31.488H88.4051V32.1437C88.4051 33.8919 87.4399 34.8312 85.8829 34.8312C84.6135 34.8312 83.826 33.9443 83.501 33.1986L81.694 33.9282C82.2149 35.1403 83.594 36.6318 85.8829 36.6318C88.319 36.6318 90.3746 35.2451 90.3746 31.8709V23.6606H88.4051V24.401V24.401ZM86.0288 30.7261C84.5968 30.7261 83.3982 29.5664 83.3982 27.97C83.3982 26.3589 84.5968 25.1831 86.0288 25.1831C87.4399 25.1831 88.5524 26.3589 88.5524 27.97C88.5524 29.5664 87.4399 30.7261 86.0288 30.7261V30.7261ZM113.118 18.811H108.148V32.2485H110.22V27.1571H113.118C115.419 27.1571 117.676 25.5459 117.676 22.9834C117.676 20.4222 115.413 18.811 113.118 18.811V18.811ZM113.172 25.2879H110.22V20.6802H113.172C114.719 20.6802 115.602 21.9231 115.602 22.9834C115.602 24.0234 114.719 25.2879 113.172 25.2879ZM125.982 23.3569C124.484 23.3569 122.927 23.9966 122.287 25.4142L124.126 26.16C124.522 25.4142 125.25 25.1723 126.019 25.1723C127.094 25.1723 128.184 25.7972 128.201 26.9004V27.0415C127.826 26.8319 127.023 26.5215 126.036 26.5215C124.055 26.5215 122.037 27.5763 122.037 29.5449C122.037 31.3455 123.659 32.5052 125.483 32.5052C126.877 32.5052 127.647 31.8965 128.13 31.1883H128.201V32.227H130.202V27.0724C130.202 24.6899 128.363 23.3569 125.982 23.3569ZM125.732 30.7207C125.054 30.7207 124.109 30.3955 124.109 29.5825C124.109 28.5425 125.287 28.1434 126.307 28.1434C127.219 28.1434 127.647 28.3382 128.201 28.5949C128.038 29.8392 126.932 30.7207 125.732 30.7207V30.7207ZM137.494 23.6512L135.112 29.4764H135.041L132.579 23.6512H130.344L134.044 31.7916L131.933 36.3214H134.098L139.8 23.6512H137.494V23.6512ZM118.815 32.2485H120.893V18.811H118.815V32.2485Z" fill="white"/>
<path d="M11.5954 8.10498C11.269 8.43554 11.0801 8.95019 11.0801 9.61669V33.3903C11.0801 34.0568 11.269 34.5715 11.5954 34.902L11.6759 34.9746L25.4453 21.658V21.3436L11.6759 8.02704L11.5954 8.10498Z" fill="url(#paint0_linear_7054_6005)"/>
<path d="M30.03 26.0967L25.4453 21.6556V21.3411L30.0356 16.9001L30.1384 16.9578L35.5745 19.9504C37.1259 20.7996 37.1259 22.1971 35.5745 23.0517L30.1384 26.0389L30.03 26.0967V26.0967Z" fill="url(#paint1_linear_7054_6005)"/>
<path d="M30.1388 26.0394L25.4457 21.4989L11.5957 34.9001C12.111 35.4242 12.9513 35.4873 13.9068 34.9633L30.1388 26.0394" fill="url(#paint2_linear_7054_6005)"/>
<path d="M30.1388 16.9604L13.9068 8.0366C12.9513 7.51791 12.111 7.58107 11.5957 8.10513L25.4457 21.501L30.1388 16.9604Z" fill="url(#paint3_linear_7054_6005)"/>
<defs>
<linearGradient id="paint0_linear_7054_6005" x1="24.2228" y1="33.6379" x2="6.19155" y2="15.001" gradientUnits="userSpaceOnUse">
<stop stop-color="#00A0FF"/>
<stop offset="0.0066" stop-color="#00A1FF"/>
<stop offset="0.2601" stop-color="#00BEFF"/>
<stop offset="0.5122" stop-color="#00D2FF"/>
<stop offset="0.7604" stop-color="#00DFFF"/>
<stop offset="1" stop-color="#00E3FF"/>
</linearGradient>
<linearGradient id="paint1_linear_7054_6005" x1="37.5946" y1="21.4969" x2="10.7092" y2="21.4969" gradientUnits="userSpaceOnUse">
<stop stop-color="#FFE000"/>
<stop offset="0.4087" stop-color="#FFBD00"/>
<stop offset="0.7754" stop-color="#FFA500"/>
<stop offset="1" stop-color="#FF9C00"/>
</linearGradient>
<linearGradient id="paint2_linear_7054_6005" x1="27.5868" y1="19.0306" x2="3.13498" y2="-6.24261" gradientUnits="userSpaceOnUse">
<stop stop-color="#FF3A44"/>
<stop offset="1" stop-color="#C31162"/>
</linearGradient>
<linearGradient id="paint3_linear_7054_6005" x1="8.10937" y1="42.8116" x2="19.0282" y2="31.5261" gradientUnits="userSpaceOnUse">
<stop stop-color="#32A071"/>
<stop offset="0.0685" stop-color="#2DA771"/>
<stop offset="0.4762" stop-color="#15CF74"/>
<stop offset="0.8009" stop-color="#06E775"/>
<stop offset="1" stop-color="#00F076"/>
</linearGradient>
</defs>
</svg>
