<svg width="222" height="85" viewBox="0 0 222 85" fill="none" xmlns="http://www.w3.org/2000/svg">
<rect width="222" height="85" fill="#0A0A0B"/>
<path fill-rule="evenodd" clip-rule="evenodd" d="M174.001 43.8686C174.001 34.9524 169.719 27.917 161.536 27.917C153.318 27.917 148.346 34.9524 148.346 43.7989C148.346 54.2824 154.216 59.5764 162.641 59.5764C166.75 59.5764 169.857 58.636 172.205 57.3125V50.3467C169.857 51.5309 167.164 52.2623 163.746 52.2623C160.396 52.2623 157.427 51.0781 157.047 46.9683H173.932C173.932 46.5156 174.001 44.7045 174.001 43.8686ZM156.943 40.5598C156.943 36.6242 159.326 34.9872 161.501 34.9872C163.607 34.9872 165.852 36.6242 165.852 40.5598H156.943Z" fill="#5B6267"/>
<path fill-rule="evenodd" clip-rule="evenodd" d="M134.863 27.917C131.459 27.917 129.27 29.5315 128.054 30.6546L127.603 28.4785H119.961V69.4017L128.645 67.5416L128.68 57.6091C129.93 58.5216 131.771 59.8202 134.828 59.8202C141.046 59.8202 146.708 54.7662 146.708 43.6405C146.673 33.4623 140.941 27.917 134.863 27.917ZM132.779 52.0989C130.729 52.0989 129.513 51.3618 128.68 50.4493L128.645 37.4283C129.548 36.4105 130.799 35.7085 132.779 35.7085C135.939 35.7085 138.128 39.2884 138.128 43.8861C138.128 48.5892 135.974 52.0989 132.779 52.0989Z" fill="#5B6267"/>
<path fill-rule="evenodd" clip-rule="evenodd" d="M107.951 25.7336L116.685 23.8985V17L107.951 18.8011V25.7336Z" fill="#5B6267"/>
<path d="M116.685 28.4629H107.951V59.0306H116.685V28.4629Z" fill="#5B6267"/>
<path fill-rule="evenodd" clip-rule="evenodd" d="M98.5431 31.4267L97.9874 28.8262H90.4844V59.5764H99.1684V38.7365C101.218 36.0305 104.691 36.5225 105.768 36.9091V28.8262C104.657 28.4044 100.593 27.6313 98.5431 31.4267Z" fill="#5B6267"/>
<path fill-rule="evenodd" clip-rule="evenodd" d="M81.6456 20.8213L73.0528 22.6369L73.0176 50.6036C73.0176 55.771 76.9266 59.5767 82.1386 59.5767C85.0263 59.5767 87.1393 59.053 88.3014 58.4246V51.3368C87.1745 51.7907 81.6103 53.3968 81.6103 48.2294V35.8347H88.3014V28.3978H81.6103L81.6456 20.8213Z" fill="#5B6267"/>
<path fill-rule="evenodd" clip-rule="evenodd" d="M57.6992 37.3452C57.6992 35.9884 58.7995 35.4665 60.6219 35.4665C63.2351 35.4665 66.536 36.2667 69.1492 37.6931V29.5174C66.2953 28.3693 63.4758 27.917 60.6219 27.917C53.6419 27.917 49 31.6048 49 37.7627C49 47.3649 62.066 45.8341 62.066 49.9742C62.066 51.5745 60.6907 52.0964 58.7652 52.0964C55.9113 52.0964 52.2665 50.9135 49.3782 49.3132V57.5933C52.576 58.9849 55.8081 59.5764 58.7652 59.5764C65.9171 59.5764 70.8341 55.9929 70.8341 49.7654C70.7997 39.3979 57.6992 41.2418 57.6992 37.3452Z" fill="#5B6267"/>
</svg>
