<svg width="222" height="85" viewBox="0 0 222 85" fill="none" xmlns="http://www.w3.org/2000/svg">
<rect width="222" height="85" fill="#0A0A0B"/>
<path d="M156.88 31.3712C156.88 29.2274 156.88 27.0835 156.88 24.8275C156.474 24.8275 156.167 24.8275 155.861 24.8275C149.748 24.8275 143.634 24.8271 137.521 24.8278C136.323 24.828 136.223 24.9241 136.223 26.0862C136.222 37.2227 136.231 48.3592 136.205 59.4956C136.203 60.2892 136.418 60.5037 137.21 60.4996C143.467 60.4678 149.724 60.4712 155.981 60.4968C156.69 60.4997 156.926 60.3114 156.902 59.5859C156.85 58.009 156.84 56.4272 156.906 54.8514C156.939 54.0492 156.641 53.9102 155.919 53.9162C152.045 53.9486 148.17 53.9365 144.295 53.9201C144.044 53.9191 143.794 53.7542 143.59 53.6258C147.854 53.5886 152.073 53.6107 156.291 53.5757C157.066 53.5693 157.264 53.8087 157.247 54.5534C157.2 56.6131 157.231 58.6746 157.231 60.8213C150.189 60.8213 143.197 60.8213 136.111 60.7759C135.989 60.6889 135.95 60.6634 135.901 60.654C135.891 60.4543 135.871 60.2546 135.871 60.0549C135.871 48.3071 135.872 36.5592 135.919 24.7189C136.004 24.5975 136.03 24.5604 136.045 24.5152C140.74 24.5045 145.434 24.4923 150.129 24.4836C152.19 24.4797 154.252 24.5089 156.312 24.4685C157.011 24.4548 157.267 24.6309 157.248 25.376C157.197 27.3788 157.231 29.3837 157.17 31.4625C157.033 31.4819 156.956 31.4266 156.88 31.3712Z" fill="#5B6267"/>
<path d="M119.688 59.4477C120.3 60.4925 121.268 60.5506 122.344 60.4976C123.716 60.4301 125.095 60.4602 126.471 60.4913C127.041 60.5041 127.277 60.3652 127.277 59.7337C127.26 48.3525 127.26 36.9712 127.276 25.59C127.277 24.978 127.076 24.8064 126.486 24.8166C124.681 24.848 122.874 24.8073 121.068 24.844C120.665 24.8522 120.266 25.062 119.799 25.1787C119.566 24.5333 119.953 24.4777 120.445 24.4795C122.725 24.4879 125.005 24.4822 127.378 24.5278C127.5 24.6158 127.54 24.6419 127.589 24.6525C127.599 24.8522 127.619 25.0519 127.619 25.2516C127.62 36.9994 127.619 48.7471 127.571 60.588C127.484 60.7098 127.457 60.7479 127.445 60.7954C125.137 60.8045 122.827 60.8651 120.523 60.7766C120.097 60.7602 119.693 60.1422 119.277 59.7325C119.3 59.6469 119.324 59.6307 119.398 59.6116C119.529 59.555 119.608 59.5013 119.688 59.4477Z" fill="#5B6267"/>
<path d="M96.7811 25.1748C96.7817 36.5946 96.7906 48.0145 96.7655 59.4342C96.7638 60.2415 96.9444 60.5272 97.7971 60.5005C99.8611 60.4359 101.928 60.4735 104.072 60.4708C104.25 61.1258 103.739 60.8047 103.534 60.8069C101.279 60.8314 99.0238 60.8217 96.6743 60.7762C96.5515 60.6899 96.513 60.6637 96.4644 60.6526C96.4544 60.4529 96.4356 60.2531 96.4356 60.0534C96.4351 48.4788 96.4361 36.9042 96.5039 25.2519C96.6409 25.1744 96.711 25.1746 96.7811 25.1748Z" fill="#5B6267"/>
<path d="M143.711 44.6355C143.908 44.5242 144.185 44.3098 144.463 44.3082C148.278 44.2861 152.093 44.2695 155.908 44.3125C156.716 44.3216 156.934 44.079 156.903 43.2984C156.844 41.8091 156.851 40.3147 156.901 38.8247C156.924 38.1187 156.724 37.8939 155.995 37.9003C152.095 37.9347 148.193 37.9214 144.292 37.9051C144.042 37.904 143.792 37.7385 143.588 37.6097C147.79 37.5764 151.947 37.5827 156.103 37.5891C157.23 37.5909 157.23 37.5911 157.23 38.7178C157.231 40.6611 157.23 42.6044 157.23 44.6314C152.716 44.6314 148.254 44.6314 143.711 44.6355Z" fill="#5B6267"/>
<path d="M113.65 39.1259C111.708 36.4025 109.768 33.6783 107.824 30.9562C107.084 29.9202 106.322 28.9001 105.603 27.8503C105.317 27.4339 105.12 26.9568 104.926 26.4422C105.002 26.3758 105.036 26.3744 105.069 26.373C105.637 27.1159 106.224 27.8455 106.769 28.6047C107.511 29.6378 108.218 30.6962 108.947 31.7387C109.535 32.5804 110.145 33.4072 110.727 34.2538C111.887 35.9431 113.034 37.6414 114.147 39.3806C113.955 39.3254 113.802 39.2257 113.65 39.1259Z" fill="#5B6267"/>
<path d="M108.505 43.4418C109.092 44.2115 109.69 44.9725 110.263 45.7527C111.375 47.268 112.497 48.7773 113.565 50.3234C114.06 51.0395 114.438 51.8364 114.869 52.7055C114.868 52.8439 114.866 52.8734 114.805 52.9026C114.665 52.9051 114.585 52.9079 114.505 52.9107C114.505 52.9107 114.52 52.904 114.52 52.8507C114.415 52.6598 114.31 52.5222 114.206 52.3846C113.615 51.5447 112.925 50.7568 112.456 49.854C111.536 48.0849 110.07 46.7272 109.022 45.0616C108.699 44.548 108.346 44.0531 108.066 43.4874C108.252 43.4307 108.378 43.4362 108.505 43.4418Z" fill="#5B6267"/>
<path d="M144.151 31.376C148.112 31.3763 152.073 31.3766 156.115 31.4293C156.199 31.5522 156.201 31.6228 156.203 31.6933C152.236 31.7028 148.269 31.7124 144.225 31.6548C144.148 31.517 144.149 31.4465 144.151 31.376Z" fill="#5B6267"/>
<path d="M115.039 52.8975C115.89 54.0256 116.759 55.1398 117.583 56.2869C118.131 57.0493 118.613 57.8589 119.115 58.7459C118.966 58.872 118.825 58.8996 118.684 58.9271C117.468 57.1394 116.251 55.3518 115.037 53.4344C115.039 53.1689 115.039 53.0332 115.039 52.8975Z" fill="#5B6267"/>
<path d="M108.5 43.3787C108.379 43.4361 108.252 43.4305 108.063 43.4268C107.172 42.2937 106.33 41.1694 105.524 40.0194C105.1 39.4145 104.74 38.7645 104.355 38.0081C104.361 37.8349 104.362 37.7887 104.363 37.7424C104.363 37.7424 104.365 37.7443 104.41 37.7432C104.485 37.7408 104.516 37.7395 104.546 37.7383C105.399 38.895 106.265 40.0429 107.101 41.2119C107.59 41.8958 108.032 42.6134 108.5 43.3787Z" fill="#5B6267"/>
<path d="M105.06 26.3102C105.035 26.374 105.002 26.3754 104.917 26.379C104.755 26.2943 104.595 26.2312 104.538 26.1167C103.887 24.8154 102.754 24.7484 101.494 24.8109C100.04 24.8831 98.5792 24.8304 96.9876 24.8255C96.7729 24.7165 96.6921 24.614 96.6113 24.5115C98.8613 24.5019 101.111 24.4904 103.361 24.4844C103.796 24.4832 104.113 24.557 104.261 25.1057C104.375 25.5269 104.778 25.8699 105.06 26.3102Z" fill="#5B6267"/>
<path d="M37.1452 27.4268C36.0512 28.6954 36.3427 30.2586 36.3224 31.7587C36.3028 33.2066 36.2798 34.6545 36.2046 36.1509C36.1083 35.1986 36.0457 34.1983 36.028 33.1972C36.003 31.7901 36.0243 30.3823 36.0003 28.9752C35.9867 28.1792 36.4765 27.7701 37.1452 27.4268Z" fill="#5B6267"/>
<path d="M119.512 47.5701C118.82 46.5773 118.128 45.5844 117.484 44.525C117.569 44.4577 117.606 44.4569 117.642 44.4561C118.096 45.0275 118.554 45.5964 119.003 46.1718C119.186 46.4059 119.35 46.6541 119.521 47.0284C119.517 47.2973 119.514 47.4337 119.512 47.5701Z" fill="#5B6267"/>
<path d="M117.634 44.3918C117.606 44.4575 117.569 44.4583 117.478 44.4596C116.92 43.8214 116.416 43.1827 115.907 42.4128C115.905 42.1389 115.907 41.9962 115.91 41.8535C116.482 42.678 117.054 43.5025 117.634 44.3918Z" fill="#5B6267"/>
<path d="M115.886 41.7985C115.907 41.9955 115.904 42.1382 115.899 42.3531C115.154 41.3654 114.41 40.3056 113.658 39.1855C113.802 39.225 113.954 39.3248 114.159 39.4411C114.762 40.2199 115.313 40.9821 115.886 41.7985Z" fill="#5B6267"/>
<path d="M36.1816 57.0898C36.7634 57.6145 37.3269 58.2048 37.8924 58.8543C36.9404 58.832 36.4814 58.3659 36.1816 57.0898Z" fill="#5B6267"/>
<path d="M118.682 58.9826C118.824 58.8995 118.965 58.872 119.138 58.8008C119.272 58.8965 119.373 59.0359 119.452 59.253C119.403 59.4249 119.375 59.5193 119.347 59.6136C119.324 59.6299 119.3 59.6461 119.237 59.6821C119.026 59.4806 118.853 59.2594 118.682 58.9826Z" fill="#5B6267"/>
<path d="M156.272 31.7041C156.2 31.6225 156.198 31.552 156.195 31.4286C156.377 31.3744 156.56 31.373 156.811 31.3711C156.956 31.426 157.032 31.4813 157.157 31.542C156.918 31.6033 156.63 31.6592 156.272 31.7041Z" fill="#5B6267"/>
<path d="M119.515 47.5688C119.515 47.4345 119.518 47.2981 119.523 47.0937C119.525 47.0257 119.608 47.0435 119.651 47.0458C119.732 47.2719 119.77 47.4958 119.733 47.6898C119.609 47.628 119.561 47.5961 119.514 47.5642C119.514 47.5642 119.518 47.5667 119.515 47.5688Z" fill="#5B6267"/>
<path d="M96.5472 24.5195C96.6924 24.6136 96.7732 24.7161 96.9073 24.8274C96.9295 24.9304 96.8984 25.0246 96.8245 25.1468C96.7117 25.1745 96.6416 25.1743 96.5189 25.1721C96.4718 24.956 96.4773 24.742 96.5472 24.5195Z" fill="#5B6267"/>
<path d="M115.04 52.8994C115.039 53.0342 115.039 53.1699 115.036 53.3734C114.863 53.3048 114.693 53.1684 114.514 52.9717C114.584 52.9086 114.664 52.9058 114.849 52.9045C114.984 52.9046 115.013 52.9032 115.043 52.9018C115.043 52.9018 115.041 52.9004 115.04 52.8994Z" fill="#5B6267"/>
<path d="M144.089 31.376C144.15 31.447 144.149 31.5175 144.145 31.6409C144.015 31.7019 143.887 31.71 143.695 31.7213C143.763 31.6082 143.895 31.4918 144.089 31.376Z" fill="#5B6267"/>
<path d="M114.193 52.4414C114.309 52.5225 114.414 52.6601 114.515 52.8583C114.402 52.7786 114.292 52.6382 114.193 52.4414Z" fill="#5B6267"/>
<path d="M96.459 60.6988C96.5142 60.664 96.5528 60.6902 96.5958 60.7642C96.5578 60.7796 96.5053 60.7622 96.459 60.6988Z" fill="#5B6267"/>
<path d="M127.49 60.8025C127.458 60.7475 127.484 60.7092 127.557 60.667C127.572 60.7058 127.554 60.7578 127.49 60.8025Z" fill="#5B6267"/>
<path d="M135.896 60.6988C135.951 60.6627 135.99 60.6883 136.032 60.7625C135.995 60.778 135.943 60.7612 135.896 60.6988Z" fill="#5B6267"/>
<path d="M127.596 24.6069C127.541 24.642 127.501 24.6157 127.459 24.5403C127.498 24.5249 127.55 24.5431 127.596 24.6069Z" fill="#5B6267"/>
<path d="M136.001 24.5049C136.031 24.5596 136.005 24.5969 135.934 24.6387C135.92 24.5994 135.938 24.5475 136.001 24.5049Z" fill="#5B6267"/>
<path d="M36.1117 36.5391C36.1623 36.5608 36.1647 36.5936 36.1635 36.6756C36.1278 36.6666 36.0956 36.6084 36.1117 36.5391Z" fill="#5B6267"/>
<path d="M36.1117 37.7441C36.1623 37.7659 36.1647 37.7985 36.1635 37.8799C36.1278 37.8709 36.0956 37.8129 36.1117 37.7441Z" fill="#5B6267"/>
<path d="M104.324 37.7852C104.361 37.789 104.36 37.8353 104.359 37.9509C104.36 38.0203 104.355 38.0084 104.357 38.015C104.335 37.957 104.311 37.8923 104.324 37.7852Z" fill="#5B6267"/>
<path d="M119.398 59.6108C119.376 59.5194 119.403 59.425 119.473 59.3022C119.571 59.2902 119.617 59.3223 119.67 59.4086C119.608 59.5006 119.529 59.5543 119.398 59.6108Z" fill="#5B6267"/>
<path d="M115.024 52.8625C115.013 52.9027 114.983 52.9041 114.909 52.9043C114.865 52.8736 114.866 52.8441 114.868 52.7703C114.925 52.7427 114.971 52.7752 115.024 52.8625Z" fill="#5B6267"/>
<path d="M119.529 47.6053C119.561 47.5953 119.609 47.6274 119.677 47.6985C119.647 47.7075 119.596 47.6774 119.529 47.6053Z" fill="#5B6267"/>
<path d="M104.529 37.7099C104.516 37.74 104.485 37.7412 104.408 37.7427C104.411 37.7223 104.461 37.7016 104.529 37.7099Z" fill="#5B6267"/>
<path d="M36.1606 37.7336C36.1666 37.4446 36.1726 37.1556 36.173 36.7458C36.1649 36.5925 36.1626 36.5599 36.1602 36.5273C36.1659 36.4538 36.1717 36.3803 36.2181 36.2044C36.2802 34.6541 36.3032 33.2062 36.3228 31.7582C36.3431 30.2581 36.0515 28.6949 37.2072 27.4269C38.9184 26.3888 40.6229 25.3395 42.3421 24.3149C45.6018 22.3723 48.8684 20.4414 52.1351 18.5105C54.3571 17.1972 56.6074 15.9299 58.8006 14.5703C60.2524 13.6703 61.5582 13.9156 62.9087 14.7486C64.8605 15.9524 66.8282 17.1309 68.805 18.2933C70.7711 19.4493 72.7621 20.5628 74.7327 21.7112C78.2115 23.7385 81.6458 25.8465 85.1798 27.7717C86.2715 28.3665 86.6078 29.0234 86.4006 30.1299C86.3902 30.1853 86.3991 30.2444 86.399 30.3018C86.3879 34.8289 86.3857 39.3562 86.3633 43.8833C86.3425 48.0828 86.2898 52.2822 86.2765 56.4817C86.2739 57.2813 85.883 57.7788 85.2478 58.1438C80.7712 60.7169 76.278 63.2613 71.8177 65.8622C68.6348 67.7183 65.5394 69.7304 62.3021 71.4828C61.5625 71.8832 60.2264 71.8284 59.4607 71.4236C55.8299 69.504 52.2919 67.4072 48.7396 65.3413C45.7854 63.6232 42.859 61.8574 39.9162 60.1195C39.2703 59.7381 38.6075 59.3854 37.922 58.9072C37.328 58.2046 36.7644 57.6143 36.2009 57.024C36.1936 50.7117 36.1864 44.3994 36.1734 37.9589C36.1653 37.7983 36.1629 37.7659 36.1606 37.7336ZM52.1766 24.9043C51.1251 25.5086 50.0703 26.1071 49.0228 26.7182C46.8715 27.9734 44.7287 29.243 42.5729 30.4903C41.7645 30.9581 41.2227 31.6083 41.1242 32.5433C41.0357 33.3834 40.9889 34.2316 40.987 35.0764C40.975 40.2997 40.9839 45.5229 40.9774 50.7462C40.9765 51.4772 40.8351 52.2213 40.9342 52.935C41.0095 53.4773 41.2452 54.1021 41.6234 54.4709C42.0942 54.9301 42.7873 55.1599 43.3804 55.4958C45.7282 56.8254 48.0811 58.1463 50.4185 59.4939C51.5402 60.1406 52.6113 60.8761 53.7412 61.507C55.8779 62.7 58.063 63.8074 60.1815 65.0308C61.0729 65.5455 61.8518 65.5943 62.7223 65.0811C65.1756 63.6347 67.6377 62.2033 70.0987 60.7701C73.2013 58.9633 76.3176 57.1797 79.4011 55.3411C80.0763 54.9385 80.9594 54.6663 81.1212 53.7098C81.2184 53.1352 81.3051 52.5499 81.3063 51.9693C81.3176 46.0285 81.266 40.0871 81.3353 34.1471C81.3564 32.3354 80.8727 31.0052 79.1002 30.3328C79.0015 30.2954 78.9125 30.2301 78.8227 30.1721C77.4801 29.3057 76.157 28.4072 74.79 27.5814C73.7123 26.9303 72.5622 26.3999 71.4763 25.7614C68.3873 23.9451 65.3352 22.0646 62.214 20.3062C61.7364 20.0371 60.8975 20.1022 60.352 20.3238C59.1556 20.8097 58.0242 21.467 56.8953 22.1056C55.3411 22.9848 53.8138 23.9113 52.1766 24.9043Z" fill="#5B6267"/>
<path d="M104.358 38.0214C104.273 38.298 104.117 38.5742 104.115 38.8513C104.092 42.9822 104.076 47.1132 104.086 51.2441C104.093 54.2668 104.141 57.2894 104.082 60.3909C101.928 60.4735 99.8612 60.4359 97.7972 60.5005C96.9445 60.5272 96.7639 60.2415 96.7656 59.4342C96.7907 48.0144 96.7818 36.5946 96.8239 25.1469C96.8978 25.0248 96.9289 24.9305 97.0405 24.834C98.5788 24.8301 100.039 24.8828 101.493 24.8106C102.753 24.748 103.887 24.8151 104.537 26.1164C104.595 26.2308 104.754 26.294 104.875 26.4437C105.12 26.956 105.316 27.4332 105.602 27.8496C106.321 28.8993 107.084 29.9195 107.823 30.9555C109.767 33.6776 111.707 36.4018 113.658 39.1855C114.411 40.3055 115.154 41.3653 115.904 42.4841C116.416 43.1819 116.919 43.8206 117.429 44.5253C118.127 45.5842 118.819 46.577 119.514 47.5678C119.517 47.5657 119.512 47.5633 119.529 47.605C119.595 47.6767 119.645 47.7066 119.752 47.7276C119.769 47.4949 119.731 47.271 119.692 47.0471C119.699 39.8105 119.706 32.574 119.79 25.2578C120.267 25.0612 120.666 24.8514 121.069 24.8432C122.874 24.8065 124.681 24.8472 126.486 24.8159C127.077 24.8056 127.277 24.9772 127.276 25.5892C127.26 36.9704 127.26 48.3517 127.277 59.733C127.278 60.3645 127.041 60.5034 126.471 60.4905C125.096 60.4595 123.717 60.4293 122.344 60.4969C121.268 60.5498 120.301 60.4917 119.67 59.4085C119.617 59.3223 119.571 59.2902 119.494 59.2246C119.373 59.036 119.272 58.8966 119.148 58.7023C118.612 57.8589 118.13 57.0494 117.583 56.287C116.759 55.1399 115.889 54.0257 115.04 52.8985C115.041 52.8995 115.043 52.9009 115.025 52.8622C114.972 52.7749 114.926 52.7423 114.868 52.6611C114.437 51.8362 114.059 51.0393 113.565 50.3232C112.497 48.7771 111.375 47.2679 110.262 45.7525C109.69 44.9723 109.091 44.2113 108.499 43.3787C108.031 42.6134 107.589 41.8958 107.1 41.2119C106.264 40.0429 105.398 38.895 104.527 37.7096C104.46 37.7014 104.41 37.7219 104.362 37.7434C104.363 37.7443 104.362 37.7424 104.324 37.7848C104.31 37.8919 104.334 37.9566 104.358 38.0214Z" fill="#5B6267"/>
<path d="M143.631 44.6391C143.627 47.5677 143.622 50.4962 143.581 53.5445C143.794 53.753 144.044 53.9179 144.295 53.9189C148.17 53.9352 152.045 53.9474 155.919 53.915C156.641 53.909 156.939 54.048 156.905 54.8502C156.839 56.426 156.85 58.0078 156.902 59.5847C156.926 60.3102 156.69 60.4985 155.981 60.4956C149.724 60.47 143.467 60.4666 137.21 60.4984C136.418 60.5025 136.203 60.288 136.205 59.4944C136.231 48.358 136.222 37.2215 136.223 26.085C136.223 24.9229 136.323 24.8268 137.521 24.8266C143.634 24.8259 149.748 24.8263 155.861 24.8263C156.167 24.8263 156.473 24.8263 156.88 24.8263C156.88 27.0823 156.88 29.2262 156.812 31.3705C156.56 31.3724 156.377 31.3738 156.114 31.3757C152.073 31.3758 148.112 31.3755 144.088 31.3747C143.894 31.4906 143.763 31.6069 143.631 31.7233C143.626 33.6186 143.622 35.5139 143.58 37.5291C143.792 37.738 144.042 37.9036 144.292 37.9046C148.193 37.921 152.095 37.9342 155.996 37.8999C156.724 37.8935 156.925 38.1182 156.901 38.8243C156.851 40.3142 156.844 41.8086 156.903 43.2979C156.934 44.0785 156.716 44.3212 155.908 44.3121C152.094 44.269 148.278 44.2857 144.463 44.3078C144.185 44.3094 143.908 44.5237 143.631 44.6391Z" fill="#5B6267"/>
<path d="M185.981 29.4771C185.981 30.2478 185.981 30.9326 185.981 31.6801C183.3 31.6801 180.647 31.6801 177.937 31.6801C177.937 41.3938 177.937 51.0452 177.937 60.7564C175.352 60.7564 172.815 60.7564 170.206 60.7564C170.196 60.5914 170.172 60.3756 170.172 60.1597C170.17 51.0665 170.161 41.9732 170.187 32.8801C170.19 32.0189 169.898 31.6772 168.982 31.6983C166.754 31.7497 164.524 31.715 162.182 31.715C162.182 29.2904 162.182 26.9314 162.182 24.4916C162.349 24.4916 162.625 24.4916 162.901 24.4916C170.273 24.4916 177.645 24.5019 185.017 24.4756C185.764 24.4729 186.031 24.6615 185.997 25.4334C185.938 26.7503 185.981 28.0717 185.981 29.4771Z" fill="#5B6267"/>
<path d="M47.5369 53.5344C47.5369 53.5344 47.5199 53.5154 47.5295 53.4405C47.3239 53.1466 47.1249 52.9084 46.8908 52.7119C45.8358 51.8263 45.3993 50.7448 45.4207 49.33C45.4895 44.7806 45.4334 40.2295 45.4648 35.6793C45.4683 35.1661 45.6096 34.5807 45.8859 34.1591C46.3509 33.4495 46.9755 32.8444 47.533 32.1954C47.5298 32.1393 47.5528 32.0977 47.7078 32.0681C48.131 31.9534 48.4751 31.8877 48.7615 31.7221C50.9103 30.4798 53.0621 29.2412 55.1809 27.949C55.9094 27.5047 56.5468 26.911 57.2258 26.3855C57.2258 26.3855 57.2463 26.3654 57.3315 26.3912C57.7844 26.2916 58.1869 26.2243 58.5135 26.0298C59.5413 25.4177 60.5483 24.7824 61.8885 25.0057C66.6273 27.7236 71.306 30.4276 76.1532 33.229C75.553 33.6521 75.1527 33.953 74.7341 34.2261C73.0177 35.3456 71.2957 36.4567 69.5151 37.5635C67.5087 36.4299 65.5712 35.2889 63.6129 34.1849C62.8727 33.7676 62.0846 33.4355 61.2478 33.0538C60.9304 33.1011 60.6522 33.1045 60.4415 33.2255C58.1402 34.5459 55.8495 35.8847 53.4938 37.2278C53.1848 37.5844 52.729 37.9286 52.7237 38.2796C52.6775 41.3738 52.7114 44.4693 52.7183 47.6272C52.8124 47.8521 52.8703 48.0825 53.0136 48.1653C53.8746 48.663 54.7503 49.1362 55.6307 49.5993C56.4295 50.0195 57.2407 50.4164 58.0464 50.8235C58.0464 50.8235 58.0379 50.8325 58.0499 50.8625C58.1096 50.9243 58.1574 50.9561 58.2053 50.988C58.2908 50.9937 58.3763 50.9995 58.5237 51.0829C59.4345 51.6841 60.2678 52.2367 61.1453 52.7068C61.3218 52.8013 61.6941 52.6326 61.9286 52.5007C64.0397 51.3129 66.147 50.118 68.2384 48.8961C68.69 48.6322 69.0732 48.251 69.537 47.911C69.4588 47.8057 69.3315 47.7133 69.1471 47.6131C68.975 47.6102 68.8601 47.6151 68.6635 47.6007C66.1531 47.5757 63.7244 47.57 61.2937 47.4832C61.2968 45.5019 61.302 43.6017 61.3881 41.7025C66.6379 41.7064 71.8067 41.7092 76.9842 41.7919C76.9945 44.0719 76.9572 46.273 77.0113 48.4718C77.0495 50.0266 76.9959 51.5082 75.6902 52.6198C75.6206 52.6791 75.6304 52.8317 75.6032 52.9409C75.612 52.992 75.5943 53.0311 75.4467 53.0563C75.1993 53.1971 75.0552 53.3396 74.9112 53.4822C74.9112 53.4822 74.9278 53.5122 74.8531 53.5199C74.7111 53.6094 74.6439 53.6911 74.5767 53.7729C74.5767 53.7729 74.5714 53.7602 74.5137 53.7289C73.5771 54.1831 72.6982 54.6687 71.7579 55.1595C70.7594 55.6652 69.8144 56.152 68.8924 56.679C68.7285 56.7727 68.6601 57.0333 68.5476 57.2169C68.5476 57.2169 68.5436 57.2058 68.4924 57.1996C68.3996 57.2528 68.358 57.3123 68.3164 57.3717C68.3164 57.3717 68.2984 57.3866 68.2194 57.358C67.9747 57.3657 67.7888 57.3653 67.6465 57.4439C66.2286 58.2274 64.8145 59.0181 63.4101 59.8254C63.2608 59.9113 63.1797 60.1158 63.067 60.2653C62.1315 60.3927 61.1959 60.5201 60.1716 60.578C58.4916 59.5872 56.9104 58.648 55.3043 57.7537C54.6737 57.4026 53.9871 57.1523 53.3261 56.8561C53.3261 56.8561 53.2817 56.8709 53.2538 56.7979C52.123 56.0312 51.04 55.3028 49.9104 54.6558C49.1534 54.2223 48.3304 53.9042 47.5369 53.5344Z" fill="#5B6267"/>
<path d="M69.5753 37.5714C71.2952 36.4572 73.0172 35.3462 74.7336 34.2266C75.1522 33.9536 75.5525 33.6526 76.1528 33.2295C71.3055 30.4281 66.6268 27.7241 61.8881 24.9727C61.8282 24.9254 61.8281 24.8584 61.8281 24.8584C62.351 24.998 62.918 25.0519 63.388 25.294C64.6182 25.9277 65.8173 26.6248 67.0076 27.332C68.2266 28.0563 69.4137 28.8339 70.6269 29.5679C72.4706 30.6832 74.3248 31.7811 76.2925 32.957C76.3811 33.5921 76.0339 34.0158 75.304 34.4002C74.1161 35.0259 73.0344 35.8502 71.8853 36.5539C71.1806 36.9854 70.4339 37.3483 69.6418 37.6923C69.5776 37.6425 69.5753 37.5714 69.5753 37.5714Z" fill="#5B6267"/>
<path d="M47.469 32.2119C46.9752 32.8443 46.3506 33.4494 45.8855 34.159C45.6092 34.5806 45.468 35.166 45.4644 35.6791C45.433 40.2293 45.4892 44.7805 45.4203 49.3298C45.3989 50.7447 45.8355 51.8261 46.8905 52.7117C47.1245 52.9082 47.3235 53.1464 47.5372 53.4304C46.1962 53.1252 45.1143 51.7188 45.114 50.3409C45.113 45.2715 45.1132 40.2021 45.1136 35.1327C45.1137 33.9809 46.2438 32.5502 47.469 32.2119Z" fill="#5B6267"/>
<path d="M69.4885 47.9239C69.0738 48.251 68.6907 48.6322 68.239 48.8961C66.1476 50.1181 64.0403 51.313 61.9292 52.5007C61.6948 52.6326 61.3224 52.8014 61.146 52.7068C60.2685 52.2367 59.4352 51.6841 58.5859 51.1013C59.4169 51.4798 60.241 51.9323 61.0869 52.3397C61.2165 52.4021 61.4703 52.2954 61.6259 52.2003C62.3669 51.7475 63.0766 51.2412 63.8307 50.8125C64.5961 50.3773 65.423 50.049 66.1813 49.6031C66.9514 49.1503 67.6706 48.6111 68.5125 48.0604C68.6571 47.8807 68.7015 47.7503 68.7458 47.62C68.8607 47.6151 68.9756 47.6103 69.1644 47.6644C69.3216 47.7902 69.4051 47.857 69.4885 47.9239Z" fill="#5B6267"/>
<path d="M57.1564 26.3799C56.5462 26.9112 55.9088 27.5049 55.1803 27.9492C53.0614 29.2415 50.9097 30.4801 48.7608 31.7224C48.4744 31.888 48.1303 31.9537 47.7441 32.0627C49.2574 31.0992 50.8433 30.1448 52.4204 29.1762C53.7575 28.355 55.0823 27.5141 56.4179 26.6904C56.6267 26.5616 56.8637 26.4783 57.1564 26.3799Z" fill="#5B6267"/>
<path d="M75.6639 52.9184C75.631 52.8324 75.6212 52.6797 75.6909 52.6205C76.9966 51.5089 77.0502 50.0272 77.012 48.4725C76.9579 46.2737 76.9951 44.0726 76.9877 41.7546C76.9821 41.6366 76.9856 41.5605 76.9856 41.5605C77.1008 41.6925 77.3156 41.8237 77.3165 41.9565C77.3381 44.8789 77.4209 47.8054 77.2856 50.7216C77.2459 51.5775 76.7571 52.5397 75.6639 52.9184Z" fill="#5B6267"/>
<path d="M69.5153 37.5643C69.5759 37.5717 69.5782 37.6428 69.5785 37.6783C69.2158 37.626 68.834 37.583 68.4941 37.4402C67.9097 37.1947 67.3347 36.916 66.7858 36.5992C65.6361 35.9357 64.5088 35.2336 63.3667 34.5568C62.7025 34.1632 62.0274 33.7878 61.3334 33.292C61.3126 33.1417 61.3155 33.1035 61.3185 33.0654C62.0847 33.4363 62.8729 33.7684 63.613 34.1857C65.5713 35.2898 67.5088 36.4307 69.5153 37.5643Z" fill="#5B6267"/>
<path d="M61.2486 33.0547C61.3161 33.1036 61.3132 33.1417 61.3061 33.237C60.4926 33.7269 59.6757 34.146 58.8755 34.5951C57.279 35.4909 55.6929 36.4052 54.0982 37.3043C53.9827 37.3694 53.8325 37.373 53.6307 37.3631C53.5608 37.2871 53.5587 37.2533 53.5566 37.2194C55.8502 35.8856 58.141 34.5468 60.4422 33.2263C60.653 33.1054 60.9312 33.1019 61.2486 33.0547Z" fill="#5B6267"/>
<path d="M53.3613 56.9092C53.9864 57.1527 54.673 57.4031 55.3035 57.7541C56.9097 58.6484 58.4908 59.5877 60.0917 60.5664C59.4528 60.4034 58.7636 60.2603 58.1642 59.946C56.9808 59.3254 55.8382 58.6245 54.6972 57.9265C54.2388 57.6461 53.8291 57.2858 53.3613 56.9092Z" fill="#5B6267"/>
<path d="M76.9042 41.5482C76.9843 41.5601 76.9808 41.6362 76.9779 41.6742C71.8061 41.7094 66.6372 41.7066 61.386 41.6686C61.3036 41.6335 61.3027 41.5652 61.3027 41.5652C66.4765 41.5556 71.6503 41.5459 76.9042 41.5482Z" fill="#5B6267"/>
<path d="M68.6638 47.6018C68.7012 47.7515 68.6569 47.8818 68.5649 48.0347C68.2553 48.0083 67.9937 47.9194 67.7313 47.9168C65.5593 47.896 63.3871 47.8912 61.1895 47.7791C61.208 47.6396 61.2521 47.6025 61.2962 47.5654C63.7248 47.5711 66.1535 47.5769 68.6638 47.6018Z" fill="#5B6267"/>
<path d="M47.5332 53.6016C48.3306 53.9042 49.1537 54.2223 49.9106 54.6558C51.0402 55.3028 52.1232 56.0312 53.2341 56.7857C52.8926 56.7111 52.518 56.619 52.1978 56.4332C50.6336 55.5254 49.084 54.5927 47.5332 53.6016Z" fill="#5B6267"/>
<path d="M58.0169 50.7746C57.2411 50.4177 56.43 50.0208 55.6311 49.6006C54.7507 49.1375 53.875 48.6643 53.014 48.1666C52.8707 48.0838 52.8128 47.8535 52.7617 47.626C52.8367 47.5577 52.8654 47.5547 52.894 47.5518C54.0296 48.2062 55.1769 48.8414 56.296 49.5229C56.885 49.8816 57.4248 50.3212 58.0169 50.7746Z" fill="#5B6267"/>
<path d="M63.1211 60.2395C63.1787 60.1163 63.2598 59.9117 63.4091 59.8259C64.8136 59.0186 66.2276 58.2279 67.6455 57.4444C67.7878 57.3658 67.9738 57.3662 68.21 57.3506C68.175 57.5321 68.1072 57.7638 67.9582 57.8431C66.5303 58.6029 65.09 59.3395 63.6491 60.0747C63.5053 60.1481 63.3345 60.1683 63.1211 60.2395Z" fill="#5B6267"/>
<path d="M61.294 47.4836C61.252 47.6018 61.208 47.6389 61.1475 47.7168C61.076 47.6109 60.9739 47.4644 60.973 47.3173C60.962 45.5275 60.9619 43.7376 60.9741 41.9479C60.975 41.8141 61.0926 41.6812 61.2298 41.5566C61.3037 41.5654 61.3046 41.6337 61.3061 41.6677C61.3023 43.602 61.2971 45.5023 61.294 47.4836Z" fill="#5B6267"/>
<path d="M52.8834 47.4716C52.8642 47.5541 52.8355 47.557 52.7638 47.5625C52.7106 44.47 52.6767 41.3745 52.723 38.2803C52.7282 37.9293 53.1841 37.5851 53.4931 37.2285C53.5572 37.2531 53.5593 37.287 53.5635 37.3717C52.9817 37.9607 52.8412 38.6206 52.8543 39.4073C52.8989 42.0682 52.8729 44.7304 52.8834 47.4716Z" fill="#5B6267"/>
<path d="M61.7503 24.8466C61.8294 24.8588 61.8294 24.9258 61.8293 24.9593C60.5491 24.7833 59.5421 25.4187 58.5143 26.0307C58.1876 26.2252 57.7852 26.2925 57.3438 26.4008C57.745 26.0368 58.2124 25.6792 58.6964 25.3456C59.6061 24.7186 60.6465 24.8135 61.7503 24.8466Z" fill="#5B6267"/>
<path d="M68.6113 57.2134C68.6598 57.0335 68.7282 56.7728 68.892 56.6792C69.8141 56.1522 70.759 55.6653 71.7585 55.2051C71.8219 55.2757 71.8229 55.306 71.824 55.3363C71.1673 55.7765 70.522 56.2354 69.8492 56.6494C69.482 56.8754 69.0682 57.0254 68.6113 57.2134Z" fill="#5B6267"/>
<path d="M71.8888 55.3265C71.8233 55.3069 71.8223 55.2766 71.8203 55.2008C72.6983 54.6698 73.5771 54.1842 74.518 53.7354C73.7044 54.2867 72.8288 54.8012 71.8888 55.3265Z" fill="#5B6267"/>
<path d="M74.9629 53.4499C75.0553 53.3403 75.1994 53.1977 75.4132 53.0625C75.3269 53.1855 75.1707 53.3013 74.9629 53.4499Z" fill="#5B6267"/>
<path d="M58.1907 50.9523C58.1585 50.9566 58.1103 50.9246 58.0547 50.858C58.0975 50.8435 58.14 50.8743 58.1907 50.9523Z" fill="#5B6267"/>
<path d="M74.6387 53.7707C74.6441 53.6919 74.7113 53.6102 74.8415 53.5332C74.8365 53.6146 74.7685 53.6912 74.6387 53.7707Z" fill="#5B6267"/>
<path d="M68.3719 57.3738C68.3576 57.3125 68.3992 57.253 68.4974 57.2021C68.5119 57.2657 68.4699 57.3206 68.3719 57.3738Z" fill="#5B6267"/>
<path d="M69.5368 47.9117C69.4042 47.8578 69.3208 47.7909 69.2207 47.6729C69.3313 47.714 69.4586 47.8064 69.5368 47.9117Z" fill="#5B6267"/>
</svg>
