<svg width="222" height="85" viewBox="0 0 222 85" fill="none" xmlns="http://www.w3.org/2000/svg">
<rect width="222" height="85" fill="#0A0A0B"/>
<path d="M56.8094 36.95C56.8094 39.5 54.6891 41.6 52.1143 41.6C49.5396 41.6 47.4193 39.5 47.4193 36.95C47.4193 34.4 49.5396 32.3 52.1143 32.3C54.6891 32.3 56.8094 34.4 56.8094 36.95ZM52.1143 43.4C49.5396 43.4 47.4193 45.5 47.4193 48.05C47.4193 50.6 49.5396 52.7 52.1143 52.7C54.6891 52.7 56.8094 50.6 56.8094 48.05C56.8094 45.5 54.6891 43.4 52.1143 43.4ZM80.4363 42.5C80.4363 54.95 70.2889 65 57.7182 65C45.1474 65 35 54.95 35 42.5C35 30.05 45.1474 20 57.7182 20C70.2889 20 80.4363 30.05 80.4363 42.5ZM74.3781 42.5C74.3781 33.35 66.9569 26 57.7182 26C48.4794 26 41.0582 33.35 41.0582 42.5C41.0582 51.65 48.4794 59 57.7182 59C66.9569 59 74.3781 51.65 74.3781 42.5ZM63.322 43.4C60.7472 43.4 58.6269 45.5 58.6269 48.05C58.6269 50.6 60.7472 52.7 63.322 52.7C65.8967 52.7 68.0171 50.6 68.0171 48.05C68.0171 45.5 65.8967 43.4 63.322 43.4ZM63.322 32.3C60.7472 32.3 58.6269 34.4 58.6269 36.95C58.6269 39.5 60.7472 41.6 63.322 41.6C65.8967 41.6 68.0171 39.5 68.0171 36.95C68.0171 34.4 65.8967 32.3 63.322 32.3ZM141.472 28.85C141.624 28.85 141.775 29 141.927 29.15V33.95C141.927 34.25 141.624 34.4 141.472 34.4H133.445C133.142 34.4 132.991 34.1 132.991 33.95V29.3C132.991 29 133.294 28.85 133.445 28.85H141.472ZM141.321 35.6H125.873C125.721 35.6 125.418 35.75 125.418 36.05L123.449 43.55L123.298 44L120.875 36.05C120.875 35.9 120.572 35.6 120.42 35.6H114.362C114.211 35.6 113.908 35.75 113.908 36.05L111.636 43.55L111.484 44L111.333 43.55L110.424 39.8L109.516 36.05C109.516 35.9 109.213 35.6 109.061 35.6H96.9448V29.15C96.9448 29 96.6419 28.7 96.339 28.85L88.7663 31.25C88.4634 31.25 88.3119 31.4 88.3119 31.7V35.75H86.343C86.1916 35.75 85.8887 35.9 85.8887 36.2V41.9C85.8887 42.05 86.0401 42.35 86.343 42.35H88.3119V49.4C88.3119 54.35 91.0381 56.6 96.0361 56.6C98.1565 56.6 100.125 56.15 101.488 55.4V49.4C101.488 49.1 101.186 48.95 101.034 49.1C100.277 49.4 99.5196 49.55 98.9137 49.55C97.5507 49.55 96.7934 48.95 96.7934 47.45V42.35H101.186C101.337 42.35 101.64 42.2 101.64 41.9V37.1L107.395 56C107.395 56.15 107.698 56.45 107.85 56.45H114.211C114.362 56.45 114.665 56.3 114.665 56L117.391 47.6L118.754 51.95L119.966 56C119.966 56.15 120.269 56.45 120.42 56.45H126.781C126.933 56.45 127.236 56.3 127.236 56L132.991 37.1V56C132.991 56.15 133.142 56.45 133.445 56.45H141.17C141.321 56.45 141.624 56.3 141.624 56V36.05C141.624 35.9 141.472 35.6 141.321 35.6ZM151.468 28.85H143.744C143.593 28.85 143.29 29 143.29 29.3V55.85C143.29 56 143.441 56.3 143.744 56.3H151.468C151.62 56.3 151.923 56.15 151.923 55.85V29.15C151.923 29 151.771 28.85 151.468 28.85ZM161.767 28.85H153.74C153.589 28.85 153.286 29 153.286 29.3V33.95C153.286 34.1 153.437 34.4 153.74 34.4H161.767C161.919 34.4 162.222 34.25 162.222 33.95V29.15C162.222 29 162.07 28.85 161.767 28.85ZM161.616 35.6H153.892C153.74 35.6 153.437 35.75 153.437 36.05V55.7C153.437 55.85 153.589 56.15 153.892 56.15H161.616C161.767 56.15 162.07 56 162.07 55.7V36.05C162.07 35.9 161.919 35.6 161.616 35.6ZM186 45.8C186 51.5 181.153 56.45 174.338 56.45C167.674 56.45 162.827 51.5 162.827 45.8C162.827 40.1 167.674 35.15 174.489 35.15C181.153 35.15 186 40.1 186 45.8ZM177.821 45.95C177.821 43.85 176.307 42.2 174.489 42.35C172.521 42.35 171.157 44 171.157 45.95C171.157 47.9 172.672 49.55 174.489 49.55C176.458 49.55 177.821 47.9 177.821 45.95Z" fill="#5B6267"/>
</svg>
