<svg width="222" height="85" viewBox="0 0 222 85" fill="none" xmlns="http://www.w3.org/2000/svg">
<rect width="222" height="85" fill="#0A0A0B"/>
<g clip-path="url(#clip0_7054_6054)">
<path d="M124.197 18.5908C120.394 19.3921 116.318 19.8665 112.119 19.9793V31.6809H125.865C125.739 27.0719 125.169 22.6407 124.197 18.5908Z" fill="#5B6267"/>
<path d="M90.5532 31.6793C90.6821 26.76 91.2922 22.0125 92.3377 17.655C88.9137 16.6853 85.7809 15.4316 83.064 13.9248C79.3429 19.1055 77.1774 25.2206 76.8105 31.6793H90.5532Z" fill="#5B6267"/>
<path d="M90.5532 35.625H76.8105C77.1774 42.0837 79.3429 48.1988 83.0639 53.3795C85.7808 51.8727 88.9137 50.619 92.3377 49.6493C91.2922 45.2918 90.6819 40.5443 90.5532 35.625Z" fill="#5B6267"/>
<path d="M115.785 2.28042C114.59 1.26036 113.363 0.573171 112.119 0.220703V16.0353C115.957 15.9275 119.67 15.5029 123.132 14.793C122.497 12.8341 121.758 10.9942 120.92 9.30388C119.415 6.26721 117.688 3.90406 115.785 2.28042Z" fill="#5B6267"/>
<path d="M93.3887 53.4404C90.5274 54.2512 87.8978 55.2735 85.5879 56.4879C85.898 56.8269 86.2139 57.1621 86.5391 57.4903C90.2967 61.2815 94.7917 64.058 99.6979 65.6844C98.3235 64.0455 97.0525 62.0662 95.9129 59.7666C94.9485 57.8206 94.105 55.6993 93.3887 53.4404Z" fill="#5B6267"/>
<path d="M99.4085 9.30388C98.5709 10.9942 97.8325 12.8341 97.1973 14.793C100.659 15.5029 104.372 15.9275 108.21 16.0353V0.220703C106.966 0.573302 105.739 1.26036 104.544 2.28042C102.641 3.90406 100.914 6.26721 99.4085 9.30388Z" fill="#5B6267"/>
<path d="M129.777 35.625C129.648 40.5443 129.038 45.2918 127.992 49.6493C131.416 50.619 134.549 51.8727 137.266 53.3795C140.987 48.1988 143.152 42.0838 143.519 35.625H129.777Z" fill="#5B6267"/>
<path d="M126.942 13.8669C129.803 13.0561 132.433 12.0338 134.743 10.8194C134.433 10.4804 134.117 10.1452 133.792 9.8171C130.034 6.02607 125.539 3.24958 120.633 1.62305C122.007 3.26194 123.278 5.2412 124.418 7.54072C125.382 9.48672 126.226 11.6081 126.942 13.8669Z" fill="#5B6267"/>
<path d="M120.92 58.0002C121.758 56.3099 122.497 54.4698 123.132 52.5109C119.67 51.801 115.957 51.3764 112.119 51.2686V67.0832C113.363 66.7307 114.59 66.0437 115.785 65.0235C117.688 63.3998 119.416 61.037 120.92 58.0002Z" fill="#5B6267"/>
<path d="M127.992 17.6568C129.038 22.0143 129.648 26.7618 129.777 31.6811H143.519C143.153 25.2224 140.987 19.1073 137.266 13.9268C134.549 15.4334 131.416 16.6871 127.992 17.6568Z" fill="#5B6267"/>
<path d="M112.119 35.625V47.3266C116.318 47.4394 120.394 47.9138 124.197 48.7151C125.169 44.6651 125.739 40.234 125.865 35.625H112.119Z" fill="#5B6267"/>
<path d="M108.209 31.6809V19.9793C104.01 19.8665 99.9348 19.3921 96.1309 18.5908C95.1595 22.6409 94.5895 27.0719 94.4629 31.6809H108.209Z" fill="#5B6267"/>
<path d="M93.3887 13.8669C94.1049 11.608 94.9485 9.48672 95.9129 7.54072C97.0525 5.2412 98.3235 3.2618 99.6979 1.62305C94.7919 3.24958 90.2967 6.02607 86.5391 9.81723C86.2139 10.1454 85.898 10.4805 85.5879 10.8195C87.8978 12.0338 90.5274 13.0561 93.3887 13.8669Z" fill="#5B6267"/>
<path d="M126.942 53.4404C126.226 55.6993 125.382 57.8206 124.418 59.7666C123.278 62.0661 122.007 64.0455 120.633 65.6844C125.539 64.058 130.034 61.2815 133.792 57.4903C134.117 57.1622 134.433 56.8271 134.743 56.4879C132.433 55.2735 129.803 54.2512 126.942 53.4404Z" fill="#5B6267"/>
<path d="M108.209 35.625H94.4629C94.5895 40.2342 95.1595 44.6652 96.1309 48.7151C99.9347 47.9138 104.01 47.4394 108.209 47.3266V35.625Z" fill="#5B6267"/>
<path d="M104.544 65.0235C105.739 66.0435 106.966 66.7306 108.21 67.0832V51.2686C104.372 51.3764 100.659 51.801 97.1973 52.5109C97.8325 54.4698 98.5708 56.3099 99.4085 58.0002C100.914 61.0368 102.641 63.3997 104.544 65.0235Z" fill="#5B6267"/>
</g>
<path d="M71.8675 79.832V83.6499C71.7175 83.8308 71.4859 84.0271 71.1727 84.2388C70.8595 84.4461 70.4559 84.6248 69.9618 84.7748C69.4678 84.9248 68.87 84.9998 68.1686 84.9998C67.5467 84.9998 66.9798 84.8983 66.4681 84.6954C65.9564 84.488 65.5153 84.1859 65.1447 83.7889C64.7786 83.3919 64.4963 82.9066 64.2978 82.3332C64.0993 81.7553 64 81.0958 64 80.3547V79.7526C64 79.0115 64.0948 78.352 64.2845 77.7741C64.4786 77.1962 64.7543 76.7088 65.1116 76.3118C65.4689 75.9148 65.8946 75.6126 66.3887 75.4053C66.8828 75.1979 67.432 75.0943 68.0363 75.0943C68.8744 75.0943 69.5626 75.231 70.1008 75.5045C70.6389 75.7736 71.0492 76.1486 71.3315 76.6294C71.6182 77.1058 71.7947 77.6528 71.8609 78.2704H69.9353C69.8868 77.944 69.7942 77.6594 69.6574 77.4168C69.5207 77.1742 69.3244 76.9845 69.0685 76.8478C68.8171 76.711 68.4907 76.6426 68.0892 76.6426C67.7584 76.6426 67.4628 76.711 67.2026 76.8478C66.9467 76.9801 66.7306 77.1764 66.5541 77.4367C66.3777 77.6969 66.2431 78.0189 66.1505 78.4027C66.0579 78.7865 66.0115 79.232 66.0115 79.7393V80.3547C66.0115 80.8576 66.0601 81.3031 66.1571 81.6913C66.2542 82.0751 66.3975 82.3993 66.5872 82.664C66.7813 82.9243 67.0195 83.1206 67.3018 83.2529C67.5841 83.3852 67.9128 83.4514 68.2877 83.4514C68.6009 83.4514 68.8612 83.4249 69.0685 83.372C69.2803 83.3191 69.4501 83.2551 69.578 83.1801C69.7104 83.1007 69.8118 83.0257 69.8824 82.9551V81.248H68.0694V79.832H71.8675Z" fill="#5B6267"/>
<path d="M75.3612 74.7039V84.8674H73.4489V74.7039H75.3612Z" fill="#5B6267"/>
<path d="M76.6316 81.3605V81.2215C76.6316 80.6966 76.7066 80.2135 76.8566 79.7724C77.0066 79.3269 77.2249 78.9409 77.5117 78.6145C77.7984 78.288 78.1513 78.0344 78.5704 77.8535C78.9895 77.6682 79.4703 77.5756 80.0129 77.5756C80.5554 77.5756 81.0385 77.6682 81.462 77.8535C81.8854 78.0344 82.2405 78.288 82.5273 78.6145C82.8184 78.9409 83.039 79.3269 83.189 79.7724C83.339 80.2135 83.4139 80.6966 83.4139 81.2215V81.3605C83.4139 81.881 83.339 82.364 83.189 82.8096C83.039 83.2507 82.8184 83.6367 82.5273 83.9675C82.2405 84.294 81.8876 84.5476 81.4686 84.7285C81.0495 84.9093 80.5687 84.9998 80.0261 84.9998C79.4835 84.9998 79.0005 84.9093 78.577 84.7285C78.1579 84.5476 77.8028 84.294 77.5117 83.9675C77.2249 83.6367 77.0066 83.2507 76.8566 82.8096C76.7066 82.364 76.6316 81.881 76.6316 81.3605ZM78.5373 81.2215V81.3605C78.5373 81.6604 78.5638 81.9405 78.6167 82.2008C78.6696 82.4611 78.7534 82.6905 78.8681 82.889C78.9872 83.0831 79.1416 83.2353 79.3313 83.3455C79.521 83.4558 79.7526 83.511 80.0261 83.511C80.2908 83.511 80.518 83.4558 80.7076 83.3455C80.8973 83.2353 81.0495 83.0831 81.1642 82.889C81.2789 82.6905 81.3627 82.4611 81.4156 82.2008C81.473 81.9405 81.5017 81.6604 81.5017 81.3605V81.2215C81.5017 80.9304 81.473 80.6569 81.4156 80.401C81.3627 80.1408 81.2767 79.9114 81.1576 79.7129C81.0429 79.5099 80.8907 79.3511 80.701 79.2364C80.5113 79.1218 80.2819 79.0644 80.0129 79.0644C79.7438 79.0644 79.5144 79.1218 79.3247 79.2364C79.1394 79.3511 78.9872 79.5099 78.8681 79.7129C78.7534 79.9114 78.6696 80.1408 78.6167 80.401C78.5638 80.6569 78.5373 80.9304 78.5373 81.2215Z" fill="#5B6267"/>
<path d="M84.5851 74.7039H86.4908V83.2264L86.2989 84.8674H84.5851V74.7039ZM91.0234 81.2149V81.3539C91.0234 81.8876 90.966 82.3773 90.8513 82.8228C90.741 83.2683 90.569 83.6543 90.3352 83.9808C90.1014 84.3028 89.8103 84.5542 89.4618 84.7351C89.1177 84.9115 88.7119 84.9998 88.2443 84.9998C87.8076 84.9998 87.4282 84.9115 87.1062 84.7351C86.7886 84.5586 86.5217 84.3094 86.3055 83.9874C86.0894 83.6653 85.9151 83.2882 85.7828 82.8559C85.6504 82.4236 85.5512 81.9516 85.485 81.4399V81.1355C85.5512 80.6238 85.6504 80.1518 85.7828 79.7195C85.9151 79.2872 86.0894 78.91 86.3055 78.588C86.5217 78.266 86.7886 78.0167 87.1062 77.8403C87.4238 77.6638 87.7987 77.5756 88.231 77.5756C88.703 77.5756 89.1133 77.666 89.4618 77.8469C89.8147 78.0234 90.1058 78.2748 90.3352 78.6012C90.569 78.9232 90.741 79.307 90.8513 79.7526C90.966 80.1937 91.0234 80.6811 91.0234 81.2149ZM89.1177 81.3539V81.2149C89.1177 80.9238 89.0956 80.6503 89.0515 80.3944C89.0118 80.1341 88.9412 79.907 88.8398 79.7129C88.7383 79.5144 88.5994 79.3578 88.4229 79.2431C88.2509 79.1284 88.0281 79.071 87.7546 79.071C87.4944 79.071 87.2738 79.1151 87.0929 79.2034C86.9121 79.2916 86.7621 79.4151 86.643 79.5739C86.5283 79.7327 86.4423 79.9224 86.3849 80.143C86.3276 80.3591 86.2923 80.5973 86.2791 80.8576V81.7244C86.2923 82.0729 86.3496 82.3817 86.4511 82.6508C86.557 82.9154 86.7158 83.125 86.9275 83.2794C87.1437 83.4293 87.4238 83.5043 87.7679 83.5043C88.0369 83.5043 88.2597 83.4514 88.4362 83.3455C88.6126 83.2397 88.7494 83.0897 88.8464 82.8956C88.9479 82.7015 89.0184 82.4743 89.0581 82.214C89.0978 81.9494 89.1177 81.6626 89.1177 81.3539Z" fill="#5B6267"/>
<path d="M96.072 83.2529V80.0636C96.072 79.8342 96.0345 79.6379 95.9596 79.4747C95.8846 79.307 95.7677 79.1769 95.6089 79.0843C95.4545 78.9916 95.2538 78.9453 95.0067 78.9453C94.795 78.9453 94.6119 78.9828 94.4575 79.0578C94.3031 79.1284 94.184 79.232 94.1002 79.3688C94.0164 79.5011 93.9745 79.6577 93.9745 79.8386H92.0688C92.0688 79.5342 92.1394 79.2453 92.2806 78.9718C92.4217 78.6983 92.6269 78.4579 92.8959 78.2505C93.165 78.0388 93.4848 77.8734 93.8554 77.7543C94.2303 77.6352 94.6494 77.5756 95.1126 77.5756C95.6684 77.5756 96.1625 77.6682 96.5948 77.8535C97.0271 78.0388 97.3667 78.3167 97.6138 78.6872C97.8652 79.0578 97.9909 79.521 97.9909 80.0768V83.1404C97.9909 83.533 98.0152 83.855 98.0637 84.1065C98.1123 84.3535 98.1828 84.5697 98.2755 84.7549V84.8674H96.35C96.2573 84.6733 96.1867 84.4307 96.1382 84.1396C96.0941 83.844 96.072 83.5485 96.072 83.2529ZM96.3235 80.5069L96.3367 81.5854H95.2714C95.02 81.5854 94.8016 81.6141 94.6163 81.6715C94.4311 81.7288 94.2789 81.8104 94.1598 81.9163C94.0407 82.0177 93.9524 82.1368 93.8951 82.2736C93.8422 82.4103 93.8157 82.5603 93.8157 82.7235C93.8157 82.8868 93.8532 83.0345 93.9282 83.1669C94.0032 83.2948 94.1112 83.3963 94.2524 83.4713C94.3936 83.5418 94.559 83.5771 94.7487 83.5771C95.0354 83.5771 95.2846 83.5198 95.4964 83.4051C95.7081 83.2904 95.8713 83.1492 95.986 82.9816C96.1051 82.814 96.1669 82.6552 96.1713 82.5052L96.6742 83.3124C96.6036 83.4933 96.5066 83.6808 96.383 83.8749C96.2639 84.069 96.1117 84.252 95.9265 84.4241C95.7412 84.5917 95.5184 84.7307 95.2582 84.841C94.9979 84.9468 94.6891 84.9998 94.3318 84.9998C93.8774 84.9998 93.465 84.9093 93.0944 84.7285C92.7283 84.5432 92.4372 84.2895 92.221 83.9675C92.0093 83.6411 91.9034 83.2705 91.9034 82.8559C91.9034 82.4809 91.974 82.1479 92.1151 81.8567C92.2563 81.5656 92.4636 81.3208 92.7371 81.1223C93.015 80.9193 93.3613 80.7672 93.776 80.6657C94.1906 80.5598 94.6715 80.5069 95.2185 80.5069H96.3235Z" fill="#5B6267"/>
<path d="M101.471 74.7039V84.8674H99.5591V74.7039H101.471Z" fill="#5B6267"/>
<path d="M114.381 75.2332V84.8674H112.396L108.525 78.4093V84.8674H106.54V75.2332H108.525L112.403 81.6979V75.2332H114.381Z" fill="#5B6267"/>
<path d="M119.284 84.9998C118.728 84.9998 118.23 84.9115 117.789 84.7351C117.348 84.5542 116.973 84.305 116.664 83.9874C116.359 83.6698 116.126 83.3014 115.962 82.8824C115.799 82.4589 115.718 82.0089 115.718 81.5325V81.2678C115.718 80.7252 115.795 80.229 115.949 79.779C116.104 79.3291 116.324 78.9387 116.611 78.6078C116.902 78.277 117.255 78.0234 117.67 77.8469C118.084 77.666 118.552 77.5756 119.072 77.5756C119.58 77.5756 120.03 77.6594 120.422 77.8271C120.815 77.9947 121.143 78.2329 121.408 78.5417C121.677 78.8505 121.88 79.221 122.017 79.6533C122.154 80.0812 122.222 80.5576 122.222 81.0826V81.8766H116.531V80.6061H120.349V80.4606C120.349 80.1959 120.301 79.9599 120.204 79.7526C120.111 79.5408 119.97 79.3732 119.78 79.2497C119.591 79.1262 119.348 79.0644 119.052 79.0644C118.801 79.0644 118.585 79.1196 118.404 79.2298C118.223 79.3401 118.075 79.4945 117.961 79.693C117.85 79.8915 117.767 80.1253 117.709 80.3944C117.656 80.6591 117.63 80.9502 117.63 81.2678V81.5325C117.63 81.8192 117.67 82.0839 117.749 82.3265C117.833 82.5692 117.95 82.7787 118.1 82.9551C118.254 83.1316 118.439 83.2683 118.655 83.3654C118.876 83.4624 119.125 83.511 119.403 83.511C119.747 83.511 120.067 83.4448 120.363 83.3124C120.663 83.1757 120.921 82.9706 121.137 82.6971L122.063 83.7028C121.913 83.919 121.708 84.1263 121.448 84.3248C121.192 84.5233 120.883 84.6866 120.521 84.8145C120.16 84.938 119.747 84.9998 119.284 84.9998Z" fill="#5B6267"/>
<path d="M126.814 77.7079V79.0578H122.645V77.7079H126.814ZM123.678 75.9412H125.583V82.7103C125.583 82.9176 125.61 83.0764 125.663 83.1867C125.72 83.297 125.804 83.3742 125.914 83.4183C126.024 83.458 126.163 83.4779 126.331 83.4779C126.45 83.4779 126.556 83.4735 126.649 83.4646C126.746 83.4514 126.827 83.4382 126.893 83.4249L126.9 84.8277C126.737 84.8807 126.56 84.9226 126.371 84.9534C126.181 84.9843 125.972 84.9998 125.742 84.9998C125.323 84.9998 124.957 84.9314 124.644 84.7946C124.335 84.6535 124.097 84.4285 123.929 84.1197C123.762 83.8109 123.678 83.4051 123.678 82.9022V75.9412Z" fill="#5B6267"/>
<path d="M129.944 83.0147L131.433 77.7079H132.644L132.253 79.7923L130.764 84.8674H129.752L129.944 83.0147ZM129.19 77.7079L130.255 83.0081L130.354 84.8674H129.163L127.35 77.7079H129.19ZM134.007 82.9221L135.046 77.7079H136.892L135.079 84.8674H133.894L134.007 82.9221ZM132.809 77.7079L134.291 82.975L134.496 84.8674H133.477L131.988 79.7989L131.611 77.7079H132.809Z" fill="#5B6267"/>
<path d="M137.547 81.3605V81.2215C137.547 80.6966 137.622 80.2135 137.772 79.7724C137.922 79.3269 138.14 78.9409 138.427 78.6145C138.713 78.288 139.066 78.0344 139.485 77.8535C139.904 77.6682 140.385 77.5756 140.928 77.5756C141.47 77.5756 141.954 77.6682 142.377 77.8535C142.8 78.0344 143.156 78.288 143.442 78.6145C143.733 78.9409 143.954 79.3269 144.104 79.7724C144.254 80.2135 144.329 80.6966 144.329 81.2215V81.3605C144.329 81.881 144.254 82.364 144.104 82.8096C143.954 83.2507 143.733 83.6367 143.442 83.9675C143.156 84.294 142.803 84.5476 142.384 84.7285C141.965 84.9093 141.484 84.9998 140.941 84.9998C140.399 84.9998 139.916 84.9093 139.492 84.7285C139.073 84.5476 138.718 84.294 138.427 83.9675C138.14 83.6367 137.922 83.2507 137.772 82.8096C137.622 82.364 137.547 81.881 137.547 81.3605ZM139.452 81.2215V81.3605C139.452 81.6604 139.479 81.9405 139.532 82.2008C139.585 82.4611 139.668 82.6905 139.783 82.889C139.902 83.0831 140.057 83.2353 140.246 83.3455C140.436 83.4558 140.668 83.511 140.941 83.511C141.206 83.511 141.433 83.4558 141.623 83.3455C141.812 83.2353 141.965 83.0831 142.079 82.889C142.194 82.6905 142.278 82.4611 142.331 82.2008C142.388 81.9405 142.417 81.6604 142.417 81.3605V81.2215C142.417 80.9304 142.388 80.6569 142.331 80.401C142.278 80.1408 142.192 79.9114 142.073 79.7129C141.958 79.5099 141.806 79.3511 141.616 79.2364C141.426 79.1218 141.197 79.0644 140.928 79.0644C140.659 79.0644 140.429 79.1218 140.24 79.2364C140.054 79.3511 139.902 79.5099 139.783 79.7129C139.668 79.9114 139.585 80.1408 139.532 80.401C139.479 80.6569 139.452 80.9304 139.452 81.2215Z" fill="#5B6267"/>
<path d="M147.406 79.2695V84.8674H145.5V77.7079H147.293L147.406 79.2695ZM149.563 77.6616L149.53 79.4283C149.437 79.4151 149.325 79.4041 149.192 79.3953C149.064 79.382 148.948 79.3754 148.842 79.3754C148.573 79.3754 148.339 79.4107 148.14 79.4813C147.946 79.5474 147.783 79.6467 147.651 79.779C147.523 79.9114 147.426 80.0724 147.36 80.2621C147.298 80.4517 147.262 80.6679 147.254 80.9105L146.87 80.7914C146.87 80.3282 146.916 79.9025 147.009 79.5144C147.101 79.1218 147.236 78.7799 147.412 78.4887C147.593 78.1976 147.814 77.9726 148.074 77.8138C148.334 77.655 148.632 77.5756 148.967 77.5756C149.073 77.5756 149.181 77.5844 149.292 77.6021C149.402 77.6153 149.492 77.6352 149.563 77.6616Z" fill="#5B6267"/>
<path d="M152.369 74.6973V84.8674H150.463V74.6973H152.369ZM156.881 77.7079L153.771 81.2546L152.104 82.9419L151.409 81.5656L152.732 79.8849L154.592 77.7079H156.881ZM154.903 84.8674L152.785 81.559L154.102 80.4076L157.1 84.8674H154.903Z" fill="#5B6267"/>
<defs>
<clipPath id="clip0_7054_6054">
<rect width="66.7086" height="67.3042" fill="white" transform="translate(76.8105)"/>
</clipPath>
</defs>
</svg>
