<svg width="180" height="37" viewBox="0 0 180 37" fill="none" xmlns="http://www.w3.org/2000/svg">
<path d="M6.06056 0H17.9419C17.9894 0.0116705 18.0362 0.0285585 18.0845 0.0341878C21.1762 0.402015 23.7298 1.78367 25.6839 4.14537C27.5608 6.41343 28.4311 9.05001 28.2325 11.9969C28.2216 12.1571 28.2557 12.2683 28.378 12.3798C28.6958 12.6698 29.0119 12.9635 29.3059 13.2764C30.6555 14.713 31.6699 16.3479 32.3021 18.2107C32.6597 19.2647 32.863 20.3493 33.0157 21.4459V23.8935C32.9714 24.2298 32.9354 24.5673 32.8815 24.9019C32.61 26.5876 32.0362 28.1696 31.1945 29.6596C30.0758 31.6392 28.5448 33.249 26.6545 34.5244C24.8199 35.7619 22.7883 36.5121 20.5921 36.8385C19.6744 36.975 18.7538 37.0704 17.8302 36.9332C15.5506 36.5951 14.0322 35.2407 12.9965 33.3056C12.3396 32.0783 12.1789 30.719 12.1392 29.3526C12.1028 28.1006 12.1023 26.8474 12.0974 25.5948C12.0764 19.3889 12.0843 13.1829 12.1211 6.97691C12.1237 6.59947 12.1152 6.21517 12.0474 5.84556C11.5603 3.19003 9.25167 1.35927 6.47 1.57978C5.08808 1.68879 3.94123 2.27918 2.99075 3.24701C1.97663 4.2813 1.59072 5.5527 1.59184 6.97032C1.59722 14.3224 1.59815 21.6744 1.59462 29.0264C1.59462 29.7935 1.60381 30.5619 1.70729 31.3226C1.93666 33.0071 2.63326 34.4805 3.81394 35.7257C4.23578 36.1705 4.69229 36.5725 5.2836 36.8091C5.21996 36.844 5.17219 36.855 5.1261 36.8503C5.03816 36.8421 4.95097 36.8274 4.86525 36.8064C3.77342 36.5209 2.88435 35.9022 2.12007 35.1125C0.681325 33.6255 -0.00622446 31.8582 4.24492e-05 29.7843C0.023996 21.9955 0.00895539 14.2062 0.0109051 6.41714C0.0109051 6.17508 0.0127155 5.92876 0.0553305 5.69165C0.464629 3.4115 1.73055 1.75882 3.81979 0.70641C4.52963 0.348743 5.28569 0.149245 6.06056 0ZM11.3707 1.58953C11.5767 1.78792 11.8076 1.93429 11.9299 2.14257C12.302 2.77635 12.8472 2.87671 13.5417 2.86244C15.016 2.83223 16.4965 2.76399 17.9664 2.95511C20.0693 3.22848 21.8241 4.18725 23.2028 5.74629C24.8354 7.59408 25.5306 9.77743 25.2313 12.2244C24.9124 14.8316 23.5494 16.7828 21.2623 18.1028C19.8705 18.9062 18.3468 19.2495 16.7397 19.2495C15.8335 19.2495 14.9273 19.2542 14.0212 19.2472C13.7959 19.2455 13.693 19.3212 13.7058 19.5517C13.7176 19.7648 13.7225 19.9801 13.7045 20.1922C13.681 20.4711 13.7889 20.5698 14.0748 20.5662C15.0596 20.5538 16.0449 20.5479 17.0295 20.5647C18.7304 20.5937 20.3119 20.1327 21.7763 19.3389C25.0908 17.5418 27.0925 14.0465 26.5475 10.0634C26.0322 6.29137 23.8933 3.69475 20.3486 2.21809C19.2473 1.75937 18.0909 1.55465 16.8941 1.55561C15.092 1.55712 13.2898 1.5471 11.4877 1.54298C11.4703 1.54325 11.4525 1.55671 11.3707 1.58953ZM15.4719 34.0473C16.0429 34.6377 16.695 35.0311 17.4634 35.2352C18.3564 35.4721 19.2584 35.4206 20.1596 35.3015C22.3396 35.0132 24.317 34.2215 26.1024 32.9589C28.006 31.6134 29.3946 29.8544 30.3476 27.7572C31.0944 26.1137 31.4595 24.3837 31.4478 22.5831C31.4349 20.6778 30.9728 18.873 30.1109 17.1717C29.5816 16.1278 28.9011 15.1654 28.0907 14.3148C27.9287 14.1443 27.8569 14.1555 27.7907 14.3851C27.7104 14.6646 27.6221 14.946 27.4972 15.2081C27.348 15.5208 27.4073 15.7483 27.6253 16.0196C29.6585 18.5506 30.3344 21.4506 29.8027 24.5918C29.2629 27.7822 27.5682 30.2978 24.8436 32.1137C23.2377 33.1846 21.457 33.7849 19.5237 33.9435C18.2945 34.0444 17.0632 33.9767 15.8332 33.9993C15.7272 34.0005 15.6176 33.9734 15.4723 34.0466L15.4719 34.0473ZM15.5537 4.44606C14.8629 4.44606 14.262 4.45416 13.6616 4.44221C13.4033 4.43713 13.3568 4.52981 13.4277 4.75663C13.501 4.98793 13.5569 5.22428 13.5948 5.46373C13.6339 5.71759 13.7427 5.82167 14.0201 5.817C14.9651 5.80107 15.9108 5.80725 16.8559 5.81219C18.049 5.81851 19.1267 6.19828 20.0718 6.89247C21.5443 7.97248 22.2824 9.45491 22.2824 11.2544C22.281 13.2452 21.3334 14.7158 19.5678 15.6675C18.6746 16.1488 17.6979 16.3128 16.6904 16.3179C15.8238 16.3227 14.9572 16.3179 14.0907 16.3201C13.7314 16.3212 13.7111 16.345 13.7091 16.706C13.708 16.9099 13.7207 17.1146 13.7061 17.3174C13.6874 17.5754 13.8035 17.6578 14.0531 17.6553C15.1066 17.645 16.1603 17.6453 17.2144 17.6443C17.6002 17.6443 17.9804 17.5937 18.3564 17.5168C21.8392 16.805 23.9988 13.9302 23.653 10.469C23.3783 7.71984 21.1323 5.25352 18.3455 4.61466C17.3899 4.39594 16.426 4.46075 15.5537 4.44537V4.44606ZM16.5434 31.1284C15.8342 31.1284 15.1249 31.1311 14.4157 31.1269C14.1828 31.1256 14.0832 31.2018 14.1614 31.4441C14.2332 31.6659 14.2937 31.8911 14.3425 32.1189C14.3942 32.3613 14.528 32.4439 14.7794 32.4414C15.9213 32.4306 17.0651 32.4552 18.2072 32.4305C19.0817 32.4112 19.9554 32.3533 20.8133 32.1489C22.9032 31.6511 24.657 30.5943 26.0313 28.9813C27.7242 26.995 28.4989 24.6855 28.3369 22.0793C28.2284 20.3347 27.6384 18.7676 26.6266 17.3424C26.5095 17.1776 26.4445 17.2206 26.3516 17.3534C26.2062 17.5611 26.0722 17.7823 25.8951 17.9609C25.682 18.1758 25.698 18.3417 25.8549 18.5898C26.94 20.306 27.2526 22.1752 26.9085 24.1533C26.5901 25.9845 25.7247 27.5427 24.3584 28.8131C23.0482 30.0311 21.4944 30.7838 19.6994 31.0273C18.6508 31.1692 17.596 31.1154 16.5434 31.1278V31.1284ZM16.5326 28.1648C15.6151 28.1648 14.8475 28.164 14.0793 28.1648C13.9311 28.1648 13.7665 28.1474 13.7854 28.3798C13.8059 28.6311 13.8225 28.8829 13.8332 29.135C13.845 29.4144 13.953 29.5362 14.2692 29.5322C15.667 29.5146 17.0653 29.5297 18.4633 29.5209C18.8263 29.5186 19.1941 29.5028 19.5508 29.4423C21.8787 29.0464 23.6298 27.8385 24.6772 25.7408C25.682 23.7282 25.7154 21.6936 24.6323 19.6776C24.5088 19.4475 24.4117 19.464 24.2399 19.61C24.0465 19.7748 23.8444 19.9324 23.6298 20.0684C23.4319 20.1936 23.403 20.3173 23.5142 20.5225C23.8983 21.2314 24.0483 22.0011 24.0414 22.7968C24.0192 25.3724 22.0813 27.6078 19.5066 28.0546C18.4693 28.2343 17.4243 28.1301 16.5326 28.1641V28.1648ZM15.6801 14.7308C16.1974 14.7064 16.836 14.7535 17.4755 14.6793C19.5958 14.4334 20.9161 12.6172 20.6664 10.8171C20.4465 9.23193 19.1679 7.74936 17.5557 7.49344C16.3556 7.30273 15.1385 7.43852 13.9292 7.41517C13.7659 7.41202 13.708 7.51211 13.7088 7.66232C13.7106 7.96314 13.7145 8.26424 13.7069 8.56493C13.7017 8.76484 13.7888 8.84488 13.9892 8.84145C14.373 8.835 14.7572 8.83253 15.141 8.84145C15.878 8.8593 16.6182 8.7809 17.3517 8.90406C18.3448 9.07074 19.136 9.86338 19.2525 10.8042C19.3803 11.8349 18.8348 12.773 17.8614 13.1649C17.4654 13.3244 17.0419 13.3637 16.6157 13.364C15.7591 13.3647 14.9028 13.3721 14.0459 13.3616C13.7879 13.3585 13.6891 13.4487 13.7051 13.7015C13.7191 13.9438 13.7194 14.1868 13.7059 14.4292C13.6946 14.6605 13.7995 14.7374 14.0229 14.7338C14.5348 14.7245 15.0469 14.7301 15.6801 14.7301V14.7308ZM16.4287 26.5633C17.0984 26.5633 17.7681 26.566 18.4378 26.5633C20.2075 26.5552 21.432 25.7091 22.1295 24.1404C22.5416 23.2139 22.5194 22.2528 22.125 21.3067C22.0313 21.0815 21.9147 21.0403 21.6964 21.1493C21.4852 21.2539 21.2647 21.3392 21.0378 21.4042C20.7778 21.4793 20.7061 21.5589 20.8364 21.8458C21.5267 23.3655 20.8748 24.9668 18.9928 25.2079C18.1408 25.3169 17.2813 25.2394 16.4253 25.2509C15.6276 25.2617 14.8298 25.2594 14.0321 25.2499C13.7889 25.2472 13.6905 25.3338 13.7056 25.5741C13.7207 25.7873 13.7207 26.0014 13.7056 26.2146C13.6842 26.4849 13.7981 26.5716 14.0656 26.5683C14.8528 26.5552 15.6409 26.5628 16.4287 26.5627V26.5633ZM16.3813 22.1656V22.1917C15.6136 22.1917 14.8458 22.1961 14.0782 22.1894C13.8042 22.187 13.6824 22.288 13.7042 22.5702C13.7234 22.8221 13.7234 23.0749 13.7042 23.3268C13.6835 23.6034 13.7814 23.7031 14.0716 23.7005C15.4301 23.6884 16.789 23.6983 18.1476 23.6925C18.4519 23.6913 18.7595 23.675 19.0528 23.5806C19.3851 23.4737 19.5201 23.2545 19.4858 22.9118C19.433 22.3826 19.2134 22.1789 18.6267 22.1688C17.8781 22.155 17.1296 22.1649 16.3813 22.1649V22.1656ZM15.4512 11.8078C15.8928 11.7804 16.4355 11.857 16.9736 11.7666C17.4399 11.6878 17.656 11.4552 17.6333 11.0617C17.6128 10.7069 17.3466 10.4554 16.905 10.4473C15.9308 10.4295 14.9562 10.4403 13.9818 10.4363C13.7786 10.4355 13.7019 10.5312 13.707 10.7247C13.7141 10.9865 13.718 11.2491 13.7058 11.5106C13.6949 11.744 13.8008 11.8166 14.024 11.8115C14.4667 11.801 14.9099 11.8078 15.4512 11.8078Z" fill="white"/>
<path d="M8.40664 36.8109C8.13201 36.8764 7.89262 36.7795 7.6574 36.6898C6.04081 36.0736 4.89021 34.9424 4.04543 33.4823C3.43809 32.4329 3.13505 31.3093 3.13673 30.091C3.14703 22.2828 3.14907 14.4745 3.14285 6.66636C3.14285 4.87596 4.3844 3.36786 6.16086 2.9841C8.35901 2.50891 10.573 4.16626 10.6962 6.36869C10.7194 6.78622 10.7255 7.20293 10.7255 7.62032C10.7262 14.9916 10.7256 22.3628 10.7237 29.7339C10.7237 30.8687 10.828 31.9841 11.2442 33.0513C11.7594 34.3712 12.5106 35.5271 13.6753 36.3877C13.786 36.4688 13.9007 36.5443 14.019 36.614C14.1276 36.6787 14.2427 36.7329 14.39 36.8102C14.2385 36.8771 14.1225 36.8368 14.0048 36.8079C12.8839 36.5333 11.9881 35.8895 11.2121 35.085C9.81544 33.6378 9.10241 31.9207 9.10659 29.8993C9.12135 22.1883 9.12307 14.4772 9.11174 6.76604C9.11174 5.6156 8.42823 4.7631 7.33751 4.53889C6.07159 4.27802 4.8157 5.24462 4.77434 6.513C4.7632 6.85249 4.7574 7.19227 4.75693 7.53231C4.75591 14.8163 4.75591 22.1001 4.75693 29.3838C4.75693 30.3353 4.76487 31.2855 5.01346 32.2174C5.41941 33.7399 6.17855 35.0519 7.3577 36.1214C7.66993 36.4048 8.03007 36.6157 8.40664 36.8109Z" fill="white"/>
<path d="M11.4975 36.808C11.2765 36.8701 11.1465 36.8448 11.0145 36.8115C10.1035 36.5809 9.33499 36.0933 8.64897 35.4841C7.34295 34.3237 6.47728 32.908 6.19638 31.1786C6.14085 30.8236 6.11384 30.4649 6.11561 30.1057C6.11115 22.3855 6.11017 14.6652 6.11268 6.94485C6.11268 6.68261 6.10377 6.4157 6.27311 6.1897C6.46892 5.92883 6.84034 5.79455 7.13656 5.87089C7.43277 5.94723 7.68484 6.2416 7.72272 6.57195C7.73929 6.71597 7.73275 6.86288 7.73275 7.00842C7.73423 14.7579 7.73716 22.5074 7.74152 30.2568C7.74486 32.2115 8.43019 33.9501 9.67424 35.4588C10.142 36.0263 10.6981 36.5274 11.4975 36.808Z" fill="white"/>
<path d="M43.0977 25.5495H50.3493C54.1616 25.5495 56.192 23.6211 56.192 21.0018C56.192 18.5673 54.3936 17.0969 52.4626 17.0086V16.8479C54.2279 16.4622 55.529 15.249 55.529 13.3126C55.529 10.8459 53.6395 9.09436 49.8935 9.09436H43.0977V25.5495ZM46.6862 22.7052V18.3343H49.6946C51.4184 18.3343 52.4875 19.2985 52.4875 20.6563C52.4875 21.8937 51.6173 22.7052 49.6117 22.7052H46.6862ZM46.6862 15.9801V11.9065H49.4128C51.004 11.9065 51.9074 12.702 51.9074 13.8911C51.9074 15.1927 50.8134 15.9801 49.3465 15.9801H46.6862Z" fill="white"/>
<path d="M63.3048 25.7905C67.1668 25.7905 69.5702 23.2274 69.5702 19.427C69.5702 15.6025 67.1668 13.0474 63.3048 13.0474C59.4427 13.0474 57.0393 15.6025 57.0393 19.427C57.0393 23.2274 59.4427 25.7905 63.3048 25.7905ZM63.3213 23.1391C61.5395 23.1391 60.6279 21.5562 60.6279 19.4029C60.6279 17.2496 61.5395 15.6587 63.3213 15.6587C65.07 15.6587 65.9816 17.2496 65.9816 19.4029C65.9816 21.5562 65.07 23.1391 63.3213 23.1391Z" fill="white"/>
<path d="M76.7098 25.7905C80.5718 25.7905 82.9752 23.2274 82.9752 19.427C82.9752 15.6025 80.5718 13.0474 76.7098 13.0474C72.8478 13.0474 70.4444 15.6025 70.4444 19.427C70.4444 23.2274 72.8478 25.7905 76.7098 25.7905ZM76.7264 23.1391C74.9446 23.1391 74.0329 21.5562 74.0329 19.4029C74.0329 17.2496 74.9446 15.6587 76.7264 15.6587C78.4751 15.6587 79.3867 17.2496 79.3867 19.4029C79.3867 21.5562 78.4751 23.1391 76.7264 23.1391Z" fill="white"/>
<path d="M84.3633 25.5495H87.8938V21.6285L88.8469 20.576L92.3194 25.5495H96.4549L91.4906 18.5512L96.2145 13.2081H92.1619L88.0844 17.8924H87.8938V9.09436H84.3633V25.5495Z" fill="white"/>
<path d="M97.0391 25.5495H100.57V13.2081H97.0391V25.5495ZM98.8126 11.6173C99.8651 11.6173 100.727 10.8379 100.727 9.88176C100.727 8.93367 99.8651 8.1543 98.8126 8.1543C97.7684 8.1543 96.9065 8.93367 96.9065 9.88176C96.9065 10.8379 97.7684 11.6173 98.8126 11.6173Z" fill="white"/>
<path d="M106.021 18.4146C106.029 16.8238 107.007 15.8917 108.432 15.8917C109.849 15.8917 110.703 16.7916 110.695 18.3022V25.5495H114.225V17.6915C114.225 14.8151 112.485 13.0474 109.833 13.0474C107.943 13.0474 106.576 13.9473 106.004 15.3856H105.855V13.2081H102.49V25.5495H106.021V18.4146Z" fill="white"/>
<path d="M121.835 30.4346C125.474 30.4346 128.059 28.8277 128.059 25.67V13.2081H124.554V15.2811H124.421C123.949 14.2768 122.913 13.0474 120.783 13.0474C117.99 13.0474 115.628 15.1525 115.628 19.3547C115.628 23.4605 117.924 25.3727 120.791 25.3727C122.822 25.3727 123.957 24.3844 124.421 23.364H124.57V25.6218C124.57 27.3171 123.451 27.976 121.918 27.976C120.36 27.976 119.573 27.3171 119.283 26.5699L116.017 26.9957C116.44 28.9401 118.404 30.4346 121.835 30.4346ZM121.91 22.8016C120.178 22.8016 119.233 21.4678 119.233 19.3386C119.233 17.2416 120.161 15.7712 121.91 15.7712C123.625 15.7712 124.587 17.1773 124.587 19.3386C124.587 21.516 123.609 22.8016 121.91 22.8016Z" fill="white"/>
<path d="M133.492 9.09436H129.961V25.5495H133.492V9.09436Z" fill="white"/>
<path d="M139.042 25.7825C140.924 25.7825 142.142 24.987 142.763 23.8381H142.863V25.5495H146.211V17.2255C146.211 14.2848 143.642 13.0474 140.807 13.0474C137.758 13.0474 135.752 14.4616 135.263 16.7113L138.528 16.9684C138.769 16.1489 139.523 15.5462 140.791 15.5462C141.993 15.5462 142.68 16.1328 142.68 17.1452V17.1934C142.68 17.9888 141.81 18.0933 139.597 18.3022C137.078 18.5271 134.816 19.3467 134.816 22.1026C134.816 24.5451 136.614 25.7825 139.042 25.7825ZM140.053 23.4203C138.968 23.4203 138.189 22.9302 138.189 21.9901C138.189 21.0259 139.009 20.5519 140.252 20.3832C141.023 20.2787 142.283 20.1019 142.705 19.8288V21.1384C142.705 22.432 141.603 23.4203 140.053 23.4203Z" fill="white"/>
<path d="M151.573 18.4146C151.581 16.8238 152.559 15.8917 153.985 15.8917C155.402 15.8917 156.255 16.7916 156.247 18.3022V25.5495H159.778V17.6915C159.778 14.8151 158.037 13.0474 155.385 13.0474C153.496 13.0474 152.128 13.9473 151.556 15.3856H151.407V13.2081H148.042V25.5495H151.573V18.4146Z" fill="white"/>
<path d="M167.454 25.7905C170.603 25.7905 172.725 24.3041 173.222 22.0142L169.957 21.8053C169.6 22.7454 168.689 23.2355 167.512 23.2355C165.747 23.2355 164.628 22.1026 164.628 20.2626V20.2546H173.297V19.3145C173.297 15.1204 170.678 13.0474 167.313 13.0474C163.567 13.0474 161.139 15.6266 161.139 19.4351C161.139 23.348 163.534 25.7905 167.454 25.7905ZM164.628 18.1334C164.702 16.7274 165.805 15.6025 167.371 15.6025C168.904 15.6025 169.965 16.6631 169.973 18.1334H164.628Z" fill="white"/>
<path d="M174.93 10.7358C174.93 10.3064 175.04 9.90771 175.262 9.53989C175.486 9.17207 175.794 8.88292 176.187 8.67243C176.582 8.45982 177.008 8.35352 177.465 8.35352C177.922 8.35352 178.347 8.45982 178.74 8.67243C179.135 8.88292 179.443 9.17207 179.665 9.53989C179.888 9.90771 180 10.3064 180 10.7358C180 11.1589 179.892 11.5533 179.675 11.919C179.459 12.2847 179.153 12.5781 178.758 12.7992C178.365 13.0182 177.934 13.1277 177.465 13.1277C176.996 13.1277 176.564 13.0182 176.169 12.7992C175.776 12.5781 175.471 12.2847 175.255 11.919C175.038 11.5533 174.93 11.1589 174.93 10.7358ZM175.233 10.7358C175.233 11.1164 175.332 11.4704 175.53 11.7978C175.73 12.1252 176.002 12.3836 176.347 12.5728C176.695 12.7599 177.067 12.8534 177.465 12.8534C177.863 12.8534 178.235 12.7599 178.583 12.5728C178.93 12.3836 179.202 12.1252 179.397 11.7978C179.594 11.4683 179.693 11.1143 179.693 10.7358C179.693 10.3616 179.597 10.0129 179.404 9.68978C179.211 9.36661 178.941 9.10935 178.593 8.918C178.248 8.72665 177.872 8.63097 177.465 8.63097C177.065 8.63097 176.691 8.72559 176.344 8.91481C175.999 9.10191 175.727 9.35811 175.53 9.6834C175.332 10.0066 175.233 10.3574 175.233 10.7358ZM176.886 10.9367V12.037H176.537V9.36129H177.458C177.808 9.36129 178.077 9.4272 178.265 9.55902C178.453 9.68872 178.547 9.88645 178.547 10.1522C178.547 10.435 178.379 10.6444 178.043 10.7805C178.215 10.8358 178.334 10.9219 178.401 11.0388C178.467 11.1536 178.501 11.2918 178.501 11.4534C178.501 11.615 178.505 11.7319 178.515 11.8042C178.524 11.8765 178.54 11.9371 178.561 11.986V12.037H178.197C178.164 11.9605 178.147 11.767 178.147 11.4566C178.147 11.2674 178.102 11.1334 178.011 11.0547C177.923 10.9761 177.772 10.9367 177.558 10.9367H176.886ZM176.886 10.6465H177.533C177.726 10.6465 177.884 10.6019 178.008 10.5126C178.134 10.4233 178.197 10.3053 178.197 10.1586C178.197 9.97787 178.145 9.84924 178.04 9.7727C177.937 9.69403 177.76 9.65257 177.508 9.64832H176.886V10.6465Z" fill="white"/>
</svg>
