<svg width="14" height="12" viewBox="0 0 14 12" fill="none" xmlns="http://www.w3.org/2000/svg">
<path d="M4.40288 12C9.68613 12 12.5754 7.38369 12.5754 3.38083C12.5754 3.24967 12.5728 3.11919 12.5671 2.98921C13.1279 2.56165 13.6155 2.02796 14 1.42071C13.4854 1.66187 12.9316 1.82426 12.3505 1.89748C12.9435 1.52248 13.3989 0.929006 13.6137 0.221672C13.0586 0.56879 12.444 0.821025 11.7899 0.957051C11.2655 0.368277 10.5191 0 9.69314 0C8.10673 0 6.82031 1.35673 6.82031 3.02901C6.82031 3.2668 6.84563 3.49788 6.89467 3.71972C4.50765 3.59327 2.39084 2.38767 0.97433 0.554851C0.727364 1.00239 0.585171 1.52265 0.585171 2.07733C0.585171 3.12826 1.09232 4.05609 1.86347 4.59902C1.39231 4.58374 0.949649 4.44704 0.56256 4.21999C0.561924 4.23259 0.561924 4.24535 0.561924 4.25862C0.561924 5.72585 1.55218 6.95075 2.8663 7.22835C2.62507 7.2977 2.37126 7.33499 2.10916 7.33499C1.92414 7.33499 1.74421 7.3155 1.56921 7.28041C1.93481 8.48382 2.99528 9.35975 4.25256 9.38444C3.26932 10.1971 2.03082 10.6812 0.685168 10.6812C0.453488 10.6812 0.224833 10.6673 0 10.6392C1.27113 11.4984 2.78048 12 4.40288 12Z" fill="#0A0A0B"/>
</svg>
