<svg width="13" height="10" viewBox="0 0 13 10" fill="none" xmlns="http://www.w3.org/2000/svg">
<path fill-rule="evenodd" clip-rule="evenodd" d="M6.39668 2.38238C7.7739 2.38244 9.09846 2.94091 10.0966 3.94234C10.1717 4.01966 10.2919 4.01868 10.3659 3.94015L11.0844 3.17493C11.1219 3.1351 11.1428 3.08116 11.1425 3.02502C11.1421 2.96889 11.1206 2.9152 11.0827 2.87584C8.46296 0.226282 4.32999 0.226282 1.71023 2.87584C1.67228 2.91517 1.65074 2.96884 1.65039 3.02498C1.65005 3.08111 1.67091 3.13508 1.70836 3.17493L2.42704 3.94015C2.50102 4.0188 2.62125 4.01977 2.69637 3.94234C3.69462 2.94084 5.01933 2.38238 6.39668 2.38238ZM6.39569 4.86608C7.15323 4.86603 7.88375 5.17044 8.44528 5.72014C8.52123 5.79816 8.64087 5.79647 8.71491 5.71633L9.43337 4.93156C9.4712 4.89039 9.4922 4.83455 9.49165 4.77652C9.49111 4.7185 9.46907 4.66313 9.43046 4.6228C7.72048 2.90322 5.07235 2.90322 3.36236 4.6228C3.32374 4.66313 3.3017 4.71852 3.30119 4.77657C3.30069 4.83462 3.32175 4.89045 3.35967 4.93156L4.07792 5.71633C4.15195 5.79647 4.2716 5.79816 4.34755 5.72014C4.90871 5.1708 5.63864 4.86642 6.39569 4.86608ZM7.84083 6.68181C7.84193 6.73878 7.82069 6.7937 7.78213 6.83362L6.5349 8.16104C6.49834 8.20005 6.44849 8.222 6.39648 8.222C6.34447 8.222 6.29462 8.20005 6.25806 8.16104L5.01062 6.83362C4.97208 6.79367 4.95088 6.73873 4.95202 6.68176C4.95317 6.62479 4.97655 6.57085 5.01665 6.53266C5.81318 5.82216 6.97977 5.82216 7.7763 6.53266C7.81638 6.57088 7.83972 6.62484 7.84083 6.68181Z" fill="white"/>
</svg>
