<svg width="52" height="52" viewBox="0 0 52 52" fill="none" xmlns="http://www.w3.org/2000/svg">
<circle cx="26" cy="26" r="25.35" fill="#0E0E0E" stroke="white" stroke-width="1.3"/>
<path d="M21.33 13H26.1927C26.2122 13.0047 26.2313 13.0115 26.2511 13.0138C27.5165 13.1623 28.5616 13.72 29.3613 14.6732C30.1295 15.5887 30.4857 16.653 30.4044 17.8424C30.3999 17.9071 30.4139 17.952 30.464 17.997C30.594 18.1141 30.7234 18.2326 30.8437 18.3589C31.3961 18.9388 31.8113 19.5987 32.07 20.3506C32.2163 20.7761 32.2995 21.2138 32.362 21.6565V22.6444C32.3439 22.7802 32.3292 22.9164 32.3071 23.0514C32.196 23.7319 31.9612 24.3704 31.6167 24.9719C31.1588 25.7709 30.5322 26.4207 29.7586 26.9355C29.0077 27.435 28.1763 27.7378 27.2774 27.8696C26.9018 27.9247 26.525 27.9632 26.147 27.9078C25.2141 27.7713 24.5926 27.2246 24.1687 26.4436C23.8999 25.9482 23.8341 25.3995 23.8178 24.8479C23.803 24.3426 23.8027 23.8368 23.8007 23.3312C23.7922 20.8262 23.7954 18.3212 23.8104 15.8162C23.8115 15.6638 23.808 15.5087 23.7803 15.3595C23.5809 14.2876 22.6361 13.5487 21.4976 13.6377C20.932 13.6817 20.4626 13.92 20.0736 14.3106C19.6586 14.7281 19.5006 15.2413 19.5011 15.8135C19.5033 18.7811 19.5037 21.7487 19.5022 24.7163C19.5022 25.0259 19.506 25.3361 19.5484 25.6431C19.6422 26.3231 19.9273 26.9178 20.4106 27.4204C20.5832 27.5999 20.77 27.7622 21.012 27.8577C20.986 27.8718 20.9664 27.8762 20.9476 27.8743C20.9116 27.871 20.8759 27.8651 20.8408 27.8566C20.394 27.7414 20.0301 27.4917 19.7173 27.1729C19.1285 26.5727 18.8471 25.8593 18.8496 25.0222C18.8594 21.8783 18.8533 18.7342 18.8541 15.5902C18.8541 15.4925 18.8548 15.3931 18.8723 15.2974C19.0398 14.377 19.5579 13.7099 20.4129 13.2851C20.7035 13.1408 21.0129 13.0602 21.33 13ZM23.5033 13.6416C23.5876 13.7217 23.6821 13.7808 23.7322 13.8648C23.8845 14.1207 24.1076 14.1612 24.3919 14.1554C24.9952 14.1432 25.6012 14.1157 26.2028 14.1928C27.0634 14.3032 27.7816 14.6901 28.3459 15.3194C29.0141 16.0653 29.2986 16.9466 29.1761 17.9343C29.0456 18.9867 28.4877 19.7742 27.5517 20.307C26.982 20.6314 26.3584 20.7699 25.7007 20.7699C25.3298 20.7699 24.9589 20.7718 24.5881 20.769C24.4959 20.7683 24.4538 20.7988 24.459 20.8919C24.4639 20.9779 24.4658 21.0648 24.4585 21.1504C24.4489 21.263 24.493 21.3028 24.6101 21.3014C25.0131 21.2964 25.4163 21.294 25.8193 21.3008C26.5155 21.3125 27.1627 21.1264 27.7621 20.806C29.1186 20.0806 29.9378 18.6698 29.7148 17.062C29.5039 15.5395 28.6285 14.4914 27.1777 13.8953C26.727 13.7102 26.2537 13.6275 25.7639 13.6279C25.0264 13.6285 24.2888 13.6245 23.5512 13.6228C23.5441 13.6229 23.5368 13.6284 23.5033 13.6416ZM25.1818 26.7429C25.4155 26.9812 25.6824 27.14 25.9969 27.2224C26.3624 27.318 26.7315 27.2972 27.1004 27.2492C27.9926 27.1328 28.8019 26.8133 29.5326 26.3036C30.3117 25.7605 30.88 25.0505 31.2701 24.204C31.5757 23.5406 31.7251 22.8423 31.7203 22.1155C31.715 21.3464 31.5259 20.6179 31.1732 19.9312C30.9566 19.5099 30.678 19.1214 30.3464 18.7781C30.2801 18.7092 30.2507 18.7138 30.2236 18.8064C30.1907 18.9193 30.1546 19.0328 30.1034 19.1386C30.0424 19.2649 30.0667 19.3567 30.1559 19.4662C30.988 20.4878 31.2646 21.6584 31.047 22.9263C30.8261 24.2141 30.1325 25.2295 29.0174 25.9624C28.3602 26.3947 27.6314 26.637 26.8401 26.701C26.3371 26.7418 25.8331 26.7144 25.3297 26.7235C25.2863 26.724 25.2415 26.7131 25.182 26.7427L25.1818 26.7429ZM25.2153 14.7946C24.9326 14.7946 24.6867 14.7979 24.4409 14.7931C24.3352 14.791 24.3162 14.8284 24.3452 14.92C24.3752 15.0133 24.3981 15.1087 24.4136 15.2054C24.4296 15.3079 24.4741 15.3499 24.5877 15.348C24.9744 15.3416 25.3614 15.3441 25.7483 15.346C26.2366 15.3486 26.6776 15.5019 27.0645 15.7821C27.6671 16.218 27.9692 16.8164 27.9692 17.5427C27.9686 18.3463 27.5808 18.9399 26.8582 19.3241C26.4926 19.5184 26.0929 19.5845 25.6805 19.5866C25.3259 19.5885 24.9712 19.5866 24.6165 19.5875C24.4695 19.5879 24.4612 19.5976 24.4604 19.7433C24.4599 19.8256 24.4651 19.9082 24.4591 19.99C24.4515 20.0942 24.499 20.1274 24.6012 20.1264C25.0323 20.1223 25.4636 20.1224 25.895 20.122C26.0529 20.122 26.2085 20.1015 26.3624 20.0705C27.7878 19.7832 28.6717 18.6228 28.5301 17.2257C28.4177 16.1161 27.4985 15.1205 26.3579 14.8627C25.9668 14.7744 25.5723 14.8005 25.2153 14.7943V14.7946ZM25.6204 25.5648C25.3301 25.5648 25.0398 25.5658 24.7496 25.5641C24.6542 25.5636 24.6135 25.5943 24.6455 25.6922C24.6749 25.7817 24.6996 25.8726 24.7196 25.9646C24.7407 26.0624 24.7955 26.0957 24.8984 26.0947C25.3658 26.0904 25.8339 26.1003 26.3013 26.0903C26.6592 26.0825 27.0168 26.0592 27.3679 25.9766C28.2233 25.7757 28.941 25.3492 29.5035 24.6981C30.1963 23.8963 30.5134 22.9641 30.4471 21.9121C30.4027 21.208 30.1612 20.5754 29.7472 20.0001C29.6992 19.9336 29.6726 19.951 29.6346 20.0046C29.5751 20.0884 29.5202 20.1777 29.4477 20.2498C29.3605 20.3365 29.3671 20.4035 29.4313 20.5036C29.8754 21.1964 30.0034 21.9509 29.8625 22.7493C29.7322 23.4884 29.378 24.1174 28.8188 24.6302C28.2826 25.1218 27.6467 25.4256 26.9121 25.5239C26.4829 25.5812 26.0512 25.5595 25.6204 25.5645V25.5648ZM25.6159 24.3685C25.2404 24.3685 24.9263 24.3682 24.6119 24.3685C24.5512 24.3685 24.4839 24.3615 24.4916 24.4553C24.5 24.5567 24.5068 24.6584 24.5112 24.7601C24.516 24.8729 24.5602 24.922 24.6896 24.9204C25.2617 24.9133 25.834 24.9194 26.4061 24.9159C26.5547 24.915 26.7052 24.9086 26.8512 24.8841C27.8039 24.7244 28.5206 24.2368 28.9493 23.3901C29.3605 22.5777 29.3742 21.7564 28.931 20.9427C28.8804 20.8498 28.8407 20.8565 28.7703 20.9154C28.6912 20.9819 28.6085 21.0456 28.5206 21.1004C28.4396 21.151 28.4278 21.2009 28.4733 21.2838C28.6305 21.5699 28.6919 21.8806 28.6891 22.2017C28.68 23.2414 27.8869 24.1437 26.8331 24.324C26.4086 24.3966 25.9809 24.3545 25.6159 24.3682V24.3685ZM25.2671 18.946C25.4787 18.9361 25.7401 18.9551 26.0019 18.9252C26.8696 18.8259 27.41 18.0928 27.3078 17.3662C27.2178 16.7264 26.6945 16.128 26.0347 16.0247C25.5435 15.9477 25.0454 16.0025 24.5504 15.9931C24.4836 15.9918 24.4599 16.0322 24.4603 16.0928C24.461 16.2143 24.4626 16.3358 24.4595 16.4572C24.4574 16.5379 24.493 16.5702 24.575 16.5688C24.7321 16.5662 24.8893 16.5652 25.0464 16.5688C25.3481 16.576 25.651 16.5443 25.9512 16.5941C26.3576 16.6613 26.6814 16.9813 26.7292 17.361C26.7814 17.7771 26.5582 18.1557 26.1598 18.3139C25.9977 18.3783 25.8244 18.3942 25.65 18.3943C25.2994 18.3945 24.9489 18.3975 24.5982 18.3933C24.4926 18.3921 24.4522 18.4285 24.4587 18.5305C24.4645 18.6283 24.4646 18.7264 24.4591 18.8242C24.4544 18.9176 24.4974 18.9486 24.5888 18.9472C24.7983 18.9434 25.0079 18.9457 25.2671 18.9457V18.946ZM25.5734 23.7221C25.8475 23.7221 26.1216 23.7231 26.3957 23.7221C27.12 23.7188 27.6212 23.3773 27.9066 22.7441C28.0753 22.3701 28.0662 21.9822 27.9048 21.6003C27.8664 21.5094 27.8187 21.4928 27.7293 21.5368C27.6429 21.579 27.5527 21.6134 27.4598 21.6396C27.3534 21.6699 27.324 21.7021 27.3774 21.8179C27.6599 22.4313 27.3931 23.0777 26.6229 23.175C26.2741 23.219 25.9224 23.1877 25.5721 23.1923C25.2456 23.1967 24.919 23.1958 24.5926 23.1919C24.493 23.1908 24.4527 23.2258 24.459 23.3228C24.4651 23.4089 24.4651 23.4952 24.459 23.5813C24.4502 23.6904 24.4968 23.7254 24.6063 23.7241C24.9284 23.7188 25.251 23.7219 25.5734 23.7218V23.7221ZM25.554 21.947V21.9575C25.2398 21.9575 24.9256 21.9593 24.6114 21.9566C24.4993 21.9556 24.4494 21.9964 24.4584 22.1103C24.4662 22.2119 24.4662 22.314 24.4584 22.4157C24.4499 22.5273 24.49 22.5676 24.6087 22.5665C25.1647 22.5616 25.7209 22.5656 26.2769 22.5633C26.4015 22.5628 26.5274 22.5562 26.6474 22.5181C26.7834 22.475 26.8386 22.3865 26.8246 22.2482C26.803 22.0345 26.7131 21.9524 26.473 21.9483C26.1666 21.9427 25.8603 21.9467 25.554 21.9467V21.947ZM25.1734 17.7661C25.3541 17.7551 25.5762 17.786 25.7964 17.7495C25.9873 17.7177 26.0757 17.6238 26.0664 17.465C26.0581 17.3218 25.9491 17.2202 25.7683 17.217C25.3697 17.2098 24.9708 17.2142 24.572 17.2125C24.4888 17.2122 24.4574 17.2508 24.4595 17.3289C24.4624 17.4346 24.464 17.5406 24.459 17.6462C24.4546 17.7404 24.4979 17.7697 24.5892 17.7676C24.7704 17.7634 24.9518 17.7661 25.1734 17.7661Z" fill="white"/>
<path d="M22.2916 27.8588C22.1792 27.8852 22.0812 27.8461 21.985 27.8099C21.3233 27.5612 20.8524 27.1046 20.5067 26.5152C20.2581 26.0917 20.1341 25.6381 20.1348 25.1464C20.139 21.9946 20.1398 18.8429 20.1373 15.6912C20.1373 14.9685 20.6454 14.3598 21.3725 14.2049C22.2721 14.0131 23.1783 14.682 23.2286 15.571C23.2382 15.7396 23.2407 15.9078 23.2407 16.0763C23.2409 19.0516 23.2407 22.0269 23.2399 25.0022C23.2399 25.4603 23.2826 25.9105 23.4529 26.3413C23.6638 26.874 23.9713 27.3406 24.4479 27.688C24.4932 27.7207 24.5402 27.7512 24.5886 27.7793C24.633 27.8054 24.6801 27.8273 24.7404 27.8585C24.6784 27.8855 24.6309 27.8693 24.5828 27.8576C24.124 27.7467 23.7574 27.4869 23.4398 27.1622C22.8682 26.578 22.5764 25.8849 22.5781 25.069C22.5841 21.9565 22.5848 18.844 22.5802 15.7314C22.5802 15.2671 22.3004 14.923 21.854 14.8325C21.3359 14.7272 20.8219 15.1173 20.805 15.6293C20.8004 15.7663 20.7981 15.9035 20.7979 16.0407C20.7975 18.9808 20.7975 21.9209 20.7979 24.8609C20.7979 25.245 20.8011 25.6285 20.9029 26.0047C21.069 26.6192 21.3797 27.1488 21.8623 27.5805C21.9901 27.6949 22.1375 27.78 22.2916 27.8588Z" fill="white"/>
<path d="M23.556 27.8577C23.4655 27.8828 23.4123 27.8726 23.3583 27.8591C22.9854 27.766 22.6709 27.5692 22.3902 27.3233C21.8556 26.8549 21.5013 26.2835 21.3864 25.5854C21.3636 25.4421 21.3526 25.2973 21.3533 25.1524C21.3515 22.0362 21.3511 18.9199 21.3521 15.8037C21.3521 15.6978 21.3485 15.5901 21.4178 15.4988C21.4979 15.3935 21.6499 15.3393 21.7712 15.3702C21.8924 15.401 21.9956 15.5198 22.0111 15.6531C22.0178 15.7113 22.0152 15.7706 22.0152 15.8293C22.0158 18.9573 22.017 22.0853 22.0188 25.2133C22.0201 26.0024 22.3006 26.7041 22.8098 27.3131C23.0012 27.5421 23.2288 27.7444 23.556 27.8577Z" fill="white"/>
<path d="M9.75 34.4672H11.5239C12.4565 34.4672 12.9532 33.9609 12.9532 33.2732C12.9532 32.634 12.5133 32.2479 12.0409 32.2247V32.1825C12.4727 32.0813 12.791 31.7627 12.791 31.2543C12.791 30.6066 12.3288 30.1467 11.4124 30.1467H9.75V34.4672ZM10.6278 33.7204V32.5728H11.3638C11.7855 32.5728 12.047 32.826 12.047 33.1825C12.047 33.5074 11.8341 33.7204 11.3435 33.7204H10.6278ZM10.6278 31.9547V30.8851H11.2948C11.6841 30.8851 11.9051 31.094 11.9051 31.4062C11.9051 31.7479 11.6375 31.9547 11.2786 31.9547H10.6278Z" fill="white"/>
<path d="M14.6932 34.5305C15.6379 34.5305 16.2259 33.8576 16.2259 32.8597C16.2259 31.8555 15.6379 31.1847 14.6932 31.1847C13.7484 31.1847 13.1605 31.8555 13.1605 32.8597C13.1605 33.8576 13.7484 34.5305 14.6932 34.5305ZM14.6972 33.8344C14.2613 33.8344 14.0383 33.4188 14.0383 32.8534C14.0383 32.288 14.2613 31.8703 14.6972 31.8703C15.125 31.8703 15.348 32.288 15.348 32.8534C15.348 33.4188 15.125 33.8344 14.6972 33.8344Z" fill="white"/>
<path d="M17.9724 34.5305C18.9171 34.5305 19.5051 33.8576 19.5051 32.8597C19.5051 31.8555 18.9171 31.1847 17.9724 31.1847C17.0276 31.1847 16.4397 31.8555 16.4397 32.8597C16.4397 33.8576 17.0276 34.5305 17.9724 34.5305ZM17.9764 33.8344C17.5406 33.8344 17.3176 33.4188 17.3176 32.8534C17.3176 32.288 17.5406 31.8703 17.9764 31.8703C18.4042 31.8703 18.6272 32.288 18.6272 32.8534C18.6272 33.4188 18.4042 33.8344 17.9764 33.8344Z" fill="white"/>
<path d="M19.8446 34.4672H20.7083V33.4377L20.9414 33.1614L21.7909 34.4672H22.8025L21.5882 32.6298L22.7437 31.2269H21.7524L20.7549 32.4568H20.7083V30.1467H19.8446V34.4672Z" fill="white"/>
<path d="M22.9454 34.4672H23.8091V31.2269H22.9454V34.4672ZM23.3793 30.8092C23.6368 30.8092 23.8476 30.6045 23.8476 30.3535C23.8476 30.1045 23.6368 29.8999 23.3793 29.8999C23.1239 29.8999 22.913 30.1045 22.913 30.3535C22.913 30.6045 23.1239 30.8092 23.3793 30.8092Z" fill="white"/>
<path d="M25.1426 32.5939C25.1446 32.1762 25.3838 31.9315 25.7325 31.9315C26.0792 31.9315 26.288 32.1678 26.286 32.5644V34.4672H27.1496V32.404C27.1496 31.6488 26.7239 31.1847 26.0751 31.1847C25.6129 31.1847 25.2784 31.4209 25.1385 31.7986H25.102V31.2269H24.2789V34.4672H25.1426V32.5939Z" fill="white"/>
<path d="M29.0112 35.7499C29.9012 35.7499 30.5338 35.328 30.5338 34.4989V31.2269H29.6762V31.7711H29.6438C29.5282 31.5074 29.2748 31.1847 28.7538 31.1847C28.0705 31.1847 27.4928 31.7374 27.4928 32.8407C27.4928 33.9187 28.0543 34.4208 28.7558 34.4208C29.2525 34.4208 29.5302 34.1614 29.6438 33.8934H29.6803V34.4862C29.6803 34.9314 29.4066 35.1044 29.0315 35.1044C28.6504 35.1044 28.4578 34.9314 28.3868 34.7352L27.588 34.847C27.6914 35.3575 28.1719 35.7499 29.0112 35.7499ZM29.0295 33.7458C28.6058 33.7458 28.3747 33.3956 28.3747 32.8365C28.3747 32.2859 28.6017 31.8998 29.0295 31.8998C29.4491 31.8998 29.6843 32.269 29.6843 32.8365C29.6843 33.4082 29.4451 33.7458 29.0295 33.7458Z" fill="white"/>
<path d="M31.8627 30.1467H30.999V34.4672H31.8627V30.1467Z" fill="white"/>
<path d="M33.2205 34.5284C33.6807 34.5284 33.9787 34.3196 34.1308 34.0179H34.1551V34.4672H34.9742V32.2817C34.9742 31.5095 34.3457 31.1847 33.6523 31.1847C32.9062 31.1847 32.4156 31.556 32.296 32.1467L33.0948 32.2142C33.1536 31.999 33.3381 31.8408 33.6483 31.8408C33.9422 31.8408 34.1105 31.9948 34.1105 32.2606V32.2732C34.1105 32.4821 33.8976 32.5095 33.3563 32.5644C32.74 32.6234 32.1865 32.8386 32.1865 33.5622C32.1865 34.2035 32.6265 34.5284 33.2205 34.5284ZM33.4678 33.9082C33.2022 33.9082 33.0117 33.7795 33.0117 33.5327C33.0117 33.2795 33.2124 33.1551 33.5165 33.1108C33.705 33.0833 34.0132 33.0369 34.1166 32.9652V33.3091C34.1166 33.6487 33.8469 33.9082 33.4678 33.9082Z" fill="white"/>
<path d="M36.2858 32.5939C36.2878 32.1762 36.5271 31.9315 36.8758 31.9315C37.2225 31.9315 37.4313 32.1678 37.4293 32.5644V34.4672H38.2929V32.404C38.2929 31.6488 37.8672 31.1847 37.2184 31.1847C36.7562 31.1847 36.4217 31.4209 36.2818 31.7986H36.2453V31.2269H35.4222V34.4672H36.2858V32.5939Z" fill="white"/>
<path d="M40.1707 34.5305C40.9411 34.5305 41.4601 34.1403 41.5818 33.539L40.783 33.4842C40.6958 33.731 40.4728 33.8597 40.1849 33.8597C39.7531 33.8597 39.4794 33.5622 39.4794 33.0791V33.077H41.6V32.8302C41.6 31.729 40.9594 31.1847 40.1363 31.1847C39.2199 31.1847 38.6259 31.8619 38.6259 32.8618C38.6259 33.8892 39.2118 34.5305 40.1707 34.5305ZM39.4794 32.5201C39.4976 32.1509 39.7673 31.8555 40.1504 31.8555C40.5255 31.8555 40.785 32.134 40.787 32.5201H39.4794Z" fill="white"/>
</svg>
