<svg width="12" height="12" viewBox="0 0 12 12" fill="none" xmlns="http://www.w3.org/2000/svg">
<path d="M6 3.94336C6.9668 3.94336 7.63086 3.31836 7.63086 2.40039C7.63086 1.48242 6.9668 0.847656 6 0.847656C5.0332 0.847656 4.36914 1.48242 4.36914 2.40039C4.36914 3.31836 5.0332 3.94336 6 3.94336ZM11.0684 7.46875V5.22266H0.931641V7.46875H11.0684ZM6 11.8438C6.9668 11.8438 7.63086 11.2188 7.63086 10.3008C7.63086 9.38281 6.9668 8.74805 6 8.74805C5.0332 8.74805 4.36914 9.38281 4.36914 10.3008C4.36914 11.2188 5.0332 11.8438 6 11.8438Z" fill="white"/>
</svg>
