<svg width="24" height="24" viewBox="0 0 24 24" fill="none" xmlns="http://www.w3.org/2000/svg">
<path d="M9.63411 11.0596C9.55078 11.0513 9.45078 11.0513 9.35911 11.0596C7.37578 10.993 5.80078 9.36797 5.80078 7.36797C5.80078 5.3263 7.45078 3.66797 9.50078 3.66797C11.5424 3.66797 13.2008 5.3263 13.2008 7.36797C13.1924 9.36797 11.6174 10.993 9.63411 11.0596Z" stroke="white" stroke-linecap="round" stroke-linejoin="round"/>
<path d="M15.6747 5.33203C17.2914 5.33203 18.5914 6.64036 18.5914 8.2487C18.5914 9.8237 17.3414 11.107 15.7831 11.1654C15.7164 11.157 15.6414 11.157 15.5664 11.1654" stroke="white" stroke-linecap="round" stroke-linejoin="round"/>
<path d="M5.46758 14.132C3.45091 15.482 3.45091 17.682 5.46758 19.0237C7.75924 20.557 11.5176 20.557 13.8092 19.0237C15.8259 17.6737 15.8259 15.4737 13.8092 14.132C11.5259 12.607 7.76758 12.607 5.46758 14.132Z" stroke="white" stroke-linecap="round" stroke-linejoin="round"/>
<path d="M17.2832 18.668C17.8832 18.543 18.4499 18.3013 18.9165 17.943C20.2165 16.968 20.2165 15.3596 18.9165 14.3846C18.4582 14.0346 17.8999 13.8013 17.3082 13.668" stroke="white" stroke-linecap="round" stroke-linejoin="round"/>
</svg>
