<svg width="24" height="24" viewBox="0 0 24 24" fill="none" xmlns="http://www.w3.org/2000/svg">
<path d="M2 6.5775L2.06159 6.0813L1.5 6.0116V6.5775H2ZM2 12.0775H1.5V12.3451L1.72265 12.4935L2 12.0775ZM3.5 13.0775L3.88169 12.7545C3.85144 12.7188 3.81632 12.6874 3.77735 12.6615L3.5 13.0775ZM9 19.5775L8.61831 19.9005C8.73336 20.0364 8.91206 20.1009 9.08743 20.0698L9 19.5775ZM16.5 15.0775L16.9139 14.797L16.5 15.0775ZM12 9.5775L12.387 9.26088L12.0435 8.8411L11.653 9.21749L12 9.5775ZM10 11.0775L10.2157 11.5286L10 11.0775ZM7 11.0775L7.26844 10.6557L7 11.0775ZM6 10.0775L5.7 9.6775C5.59351 9.75736 5.52326 9.8764 5.50482 10.0082C5.48638 10.1401 5.52127 10.2738 5.60176 10.3798L6 10.0775ZM16 5.5775L16.2415 5.13967L16.2179 5.12665L16.193 5.11625L16 5.5775ZM18.5 6.5775L18.409 7.06914L18.5 6.5775ZM21 6.5775H21.5V6.01646L20.9427 6.0808L21 6.5775ZM21 12.0775L21.2155 12.5286L21.5 12.3927V12.0775H21ZM16 14.4664L15.613 14.783L15.6221 14.7941L15.6319 14.8047L16 14.4664ZM4.5 6.5775L4.59806 7.06779L4.5 6.5775ZM7.5 5.0775L7.41433 4.58489L7.5 5.0775ZM9.5 5.0775L9.45669 5.57562L9.5 5.0775ZM1.5 6.5775V12.0775H2.5V6.5775H1.5ZM1.72265 12.4935L3.22265 13.4935L3.77735 12.6615L2.27735 11.6615L1.72265 12.4935ZM3.11831 13.4005L8.61831 19.9005L9.38169 19.2545L3.88169 12.7545L3.11831 13.4005ZM9 19.5775C9.08743 20.0698 9.08754 20.0698 9.08769 20.0697C9.08779 20.0697 9.08798 20.0697 9.08817 20.0697C9.08856 20.0696 9.0891 20.0695 9.08978 20.0694C9.09113 20.0691 9.09305 20.0688 9.09552 20.0683C9.10047 20.0674 9.10765 20.0661 9.11698 20.0644C9.13563 20.061 9.16287 20.056 9.19808 20.0493C9.26848 20.036 9.37076 20.0163 9.49984 19.9902C9.7579 19.9381 10.1235 19.8606 10.556 19.7587C11.4187 19.5554 12.5568 19.2528 13.6398 18.8576C14.7078 18.468 15.7828 17.9673 16.4717 17.3445C16.8192 17.0303 17.1086 16.6495 17.2146 16.1968C17.3254 15.7237 17.2188 15.2471 16.9139 14.797L16.0861 15.3579C16.2601 15.6149 16.2784 15.8091 16.241 15.9687C16.1988 16.1487 16.0668 16.3624 15.8011 16.6027C15.2634 17.0888 14.3436 17.5364 13.2971 17.9182C12.2656 18.2946 11.1695 18.5867 10.3266 18.7854C9.90625 18.8844 9.55124 18.9596 9.30185 19.01C9.1772 19.0352 9.07906 19.0541 9.01248 19.0667C8.97918 19.073 8.95379 19.0777 8.93693 19.0808C8.9285 19.0823 8.9222 19.0835 8.91811 19.0842C8.91607 19.0846 8.91458 19.0848 8.91365 19.085C8.91319 19.0851 8.91287 19.0851 8.91269 19.0852C8.9126 19.0852 8.91257 19.0852 8.91252 19.0852C8.91253 19.0852 8.91257 19.0852 9 19.5775ZM12 9.5775C11.653 9.21749 11.653 9.21746 11.6531 9.21744C11.6531 9.21744 11.6531 9.21741 11.6531 9.21741C11.6531 9.2174 11.6531 9.2174 11.6531 9.21742C11.653 9.21746 11.6529 9.21757 11.6528 9.21774C11.6524 9.21807 11.6518 9.21867 11.6509 9.21951C11.6492 9.22119 11.6464 9.22386 11.6426 9.22747C11.635 9.2347 11.6234 9.24568 11.6081 9.25999C11.5776 9.28863 11.5325 9.33054 11.4753 9.38238C11.3609 9.48622 11.1994 9.62899 11.0117 9.78417C10.6272 10.1021 10.1664 10.4437 9.78427 10.6264L10.2157 11.5286C10.7144 11.2901 11.2536 10.8817 11.6489 10.5549C11.8511 10.3877 12.0244 10.2345 12.1474 10.1229C12.209 10.067 12.2581 10.0214 12.2923 9.98935C12.3093 9.97334 12.3226 9.96074 12.3319 9.95196C12.3365 9.94757 12.3401 9.94413 12.3426 9.9417C12.3439 9.94049 12.3449 9.93953 12.3456 9.93882C12.346 9.93847 12.3463 9.93819 12.3465 9.93797C12.3466 9.93785 12.3467 9.93776 12.3468 9.93768C12.3468 9.93764 12.3469 9.9376 12.3469 9.93758C12.3469 9.93754 12.347 9.9375 12 9.5775ZM9.78427 10.6264C9.16259 10.9238 8.97258 11.0775 8.5 11.0775V12.0775C9.26236 12.0775 9.72333 11.7641 10.2157 11.5286L9.78427 10.6264ZM8.5 11.0775C8.01573 11.0775 7.74888 10.9614 7.26844 10.6557L6.73156 11.4993C7.29299 11.8566 7.74933 12.0775 8.5 12.0775V11.0775ZM7.26844 10.6557C7.09593 10.5459 6.88349 10.339 6.69682 10.1317C6.60788 10.0329 6.53214 9.94243 6.47879 9.87676C6.4522 9.84404 6.43141 9.81777 6.41756 9.80008C6.41064 9.79124 6.40547 9.78457 6.4022 9.78032C6.40056 9.7782 6.3994 9.77669 6.39874 9.77582C6.39841 9.77538 6.3982 9.77511 6.39811 9.775C6.39807 9.77494 6.39806 9.77493 6.39808 9.77496C6.39809 9.77497 6.39811 9.775 6.39814 9.77503C6.39815 9.77505 6.39818 9.77508 6.39819 9.77509C6.39821 9.77513 6.39824 9.77517 6 10.0775C5.60176 10.3798 5.60179 10.3799 5.60183 10.3799C5.60184 10.3799 5.60188 10.38 5.60191 10.38C5.60197 10.3801 5.60204 10.3802 5.60211 10.3803C5.60226 10.3805 5.60245 10.3807 5.60266 10.381C5.6031 10.3816 5.60366 10.3823 5.60435 10.3832C5.60574 10.385 5.60763 10.3875 5.61002 10.3906C5.6148 10.3968 5.62157 10.4056 5.63016 10.4165C5.64734 10.4385 5.6719 10.4695 5.70266 10.5073C5.76401 10.5828 5.85091 10.6867 5.95372 10.8009C6.15056 11.0195 6.43813 11.3126 6.73156 11.4993L7.26844 10.6557ZM6.3 10.4775L12.3 5.9775L11.7 5.1775L5.7 9.6775L6.3 10.4775ZM12 5.5775C12.193 6.03874 12.193 6.03876 12.1929 6.03878C12.1929 6.03879 12.1929 6.0388 12.1928 6.03881C12.1928 6.03883 12.1928 6.03883 12.1928 6.03883C12.1928 6.03883 12.1929 6.03881 12.193 6.03875C12.1933 6.03863 12.1938 6.03839 12.1947 6.03805C12.1964 6.03735 12.1992 6.0362 12.203 6.03463C12.2107 6.03148 12.2226 6.02665 12.2383 6.02037C12.2698 6.00781 12.3165 5.9895 12.3753 5.96735C12.4934 5.92295 12.6588 5.86372 12.8474 5.80467C13.2389 5.68214 13.6779 5.5775 14 5.5775V4.5775C13.517 4.5775 12.956 4.72286 12.5487 4.85032C12.338 4.91627 12.1544 4.98204 12.0232 5.03139C11.9575 5.05612 11.9045 5.07687 11.8675 5.09165C11.849 5.09904 11.8344 5.10495 11.8242 5.10913C11.8191 5.11122 11.8151 5.11288 11.8122 5.11408C11.8108 5.11468 11.8096 5.11516 11.8087 5.11552C11.8083 5.1157 11.8079 5.11585 11.8076 5.11598C11.8075 5.11604 11.8074 5.11609 11.8073 5.11614C11.8072 5.11616 11.8071 5.11619 11.8071 5.1162C11.8071 5.11622 11.807 5.11625 12 5.5775ZM14 5.5775C14.3221 5.5775 14.7611 5.68214 15.1526 5.80467C15.3412 5.86372 15.5066 5.92295 15.6247 5.96735C15.6835 5.9895 15.7302 6.00781 15.7617 6.02037C15.7774 6.02665 15.7893 6.03148 15.797 6.03463C15.8008 6.0362 15.8036 6.03735 15.8053 6.03805C15.8062 6.03839 15.8067 6.03863 15.807 6.03875C15.8071 6.03881 15.8072 6.03883 15.8072 6.03883C15.8072 6.03883 15.8072 6.03883 15.8072 6.03881C15.8071 6.0388 15.8071 6.03879 15.8071 6.03878C15.807 6.03876 15.807 6.03874 16 5.5775C16.193 5.11625 16.1929 5.11622 16.1929 5.1162C16.1929 5.11619 16.1928 5.11616 16.1927 5.11614C16.1926 5.11609 16.1925 5.11604 16.1924 5.11598C16.1921 5.11585 16.1917 5.1157 16.1913 5.11552C16.1904 5.11516 16.1892 5.11468 16.1878 5.11408C16.1849 5.11288 16.1809 5.11122 16.1758 5.10913C16.1656 5.10495 16.151 5.09904 16.1325 5.09165C16.0955 5.07687 16.0425 5.05612 15.9768 5.03139C15.8456 4.98204 15.662 4.91627 15.4513 4.85032C15.044 4.72286 14.483 4.5775 14 4.5775V5.5775ZM16 5.5775C15.7585 6.01533 15.7586 6.01535 15.7586 6.01538C15.7587 6.0154 15.7587 6.01543 15.7588 6.01546C15.7589 6.01551 15.759 6.01558 15.7591 6.01566C15.7594 6.01582 15.7598 6.01603 15.7603 6.01629C15.7612 6.01681 15.7625 6.01752 15.7642 6.01841C15.7674 6.02021 15.7721 6.02275 15.7781 6.02601C15.7901 6.03251 15.8074 6.04185 15.8295 6.05368C15.8738 6.07732 15.9375 6.11093 16.017 6.1517C16.1757 6.23313 16.3984 6.3437 16.6548 6.46063C17.1569 6.6896 17.8284 6.96164 18.409 7.06914L18.591 6.08586C18.1376 6.00189 17.5591 5.77392 17.0697 5.55076C16.8304 5.44163 16.6219 5.3381 16.4734 5.26194C16.3993 5.22392 16.3405 5.19287 16.3005 5.17154C16.2806 5.16089 16.2653 5.15267 16.2553 5.14724C16.2503 5.14452 16.2466 5.14251 16.2443 5.14123C16.2431 5.14059 16.2423 5.14014 16.2418 5.13988C16.2416 5.13974 16.2415 5.13966 16.2414 5.13963C16.2414 5.13961 16.2413 5.1396 16.2414 5.13961C16.2414 5.13961 16.2414 5.13963 16.2414 5.13963C16.2414 5.13965 16.2415 5.13967 16 5.5775ZM18.409 7.06914C18.9479 7.16893 19.6204 7.16619 20.132 7.14368C20.3932 7.13218 20.623 7.11496 20.7878 7.10061C20.8703 7.09342 20.9367 7.08692 20.983 7.08218C21.0061 7.0798 21.0242 7.07786 21.0368 7.07649C21.0431 7.0758 21.048 7.07526 21.0514 7.07487C21.0531 7.07468 21.0545 7.07452 21.0555 7.07441C21.056 7.07435 21.0564 7.07431 21.0567 7.07427C21.0569 7.07425 21.057 7.07424 21.0571 7.07423C21.0571 7.07422 21.0572 7.07421 21.0572 7.07421C21.0573 7.0742 21.0573 7.0742 21 6.5775C20.9427 6.0808 20.9427 6.08079 20.9427 6.08079C20.9427 6.08079 20.9428 6.08078 20.9428 6.08078C20.9428 6.08078 20.9428 6.08078 20.9427 6.08079C20.9427 6.08079 20.9425 6.08081 20.9423 6.08084C20.9418 6.0809 20.9409 6.081 20.9397 6.08113C20.9372 6.08141 20.9334 6.08184 20.9281 6.08241C20.9177 6.08356 20.9018 6.08526 20.8809 6.0874C20.8392 6.09168 20.7779 6.09768 20.701 6.10438C20.5469 6.11781 20.3318 6.13392 20.088 6.14465C19.5896 6.16658 19.0121 6.16384 18.591 6.08586L18.409 7.06914ZM20.5 6.5775V12.0775H21.5V6.5775H20.5ZM16.9139 14.797C16.811 14.645 16.6707 14.4747 16.5651 14.3512C16.5106 14.2875 16.4619 14.2322 16.4267 14.1929C16.4091 14.1731 16.3947 14.1573 16.3847 14.1462C16.3797 14.1406 16.3757 14.1363 16.3729 14.1332C16.3715 14.1317 16.3704 14.1305 16.3696 14.1296C16.3692 14.1292 16.3689 14.1288 16.3686 14.1286C16.3685 14.1284 16.3684 14.1283 16.3683 14.1282C16.3683 14.1282 16.3682 14.1282 16.3682 14.1281C16.3682 14.1281 16.3682 14.1281 16.3682 14.1281C16.3681 14.1281 16.3681 14.128 16 14.4664C15.6319 14.8047 15.6319 14.8047 15.6318 14.8047C15.6318 14.8047 15.6318 14.8047 15.6318 14.8047C15.6318 14.8047 15.6318 14.8047 15.6318 14.8047C15.6318 14.8047 15.6318 14.8047 15.6319 14.8047C15.6319 14.8048 15.6321 14.805 15.6323 14.8052C15.6328 14.8057 15.6335 14.8065 15.6346 14.8077C15.6366 14.8099 15.6398 14.8135 15.6441 14.8182C15.6526 14.8275 15.6652 14.8415 15.6809 14.8591C15.7125 14.8944 15.7563 14.9441 15.8052 15.0012C15.9063 15.1195 16.0161 15.2547 16.0861 15.3579L16.9139 14.797ZM16.387 14.1498L12.387 9.26088L11.613 9.89412L15.613 14.783L16.387 14.1498ZM20.7845 11.6263L15.7844 14.0152L16.2156 14.9175L21.2155 12.5286L20.7845 11.6263ZM2 6.5775C1.93841 7.07369 1.93847 7.0737 1.93853 7.0737C1.93856 7.07371 1.93862 7.07371 1.93868 7.07372C1.93879 7.07374 1.93892 7.07375 1.93908 7.07377C1.9394 7.07381 1.93981 7.07386 1.94031 7.07392C1.94132 7.07405 1.9427 7.07421 1.94444 7.07442C1.94792 7.07485 1.95286 7.07544 1.95919 7.07618C1.97184 7.07767 1.99005 7.07977 2.01331 7.08233C2.0598 7.08746 2.12654 7.09448 2.20933 7.10224C2.37466 7.11774 2.60529 7.13633 2.86734 7.14874C3.37966 7.173 4.05602 7.1762 4.59806 7.06779L4.40194 6.08721C3.98663 6.17027 3.41299 6.17346 2.91465 6.14986C2.67137 6.13834 2.4565 6.12102 2.30266 6.1066C2.22587 6.09941 2.16461 6.09296 2.123 6.08837C2.10221 6.08607 2.08634 6.08424 2.07593 6.08302C2.07072 6.08241 2.06688 6.08195 2.06447 6.08165C2.06326 6.08151 2.06242 6.08141 2.06193 6.08135C2.06169 6.08132 2.06154 6.0813 2.06148 6.08129C2.06145 6.08129 2.06145 6.08129 2.06146 6.08129C2.06147 6.08129 2.0615 6.08129 2.06151 6.08129C2.06154 6.0813 2.06159 6.0813 2 6.5775ZM4.59806 7.06779C5.36219 6.91496 5.87104 6.52912 6.29394 6.21814C6.72217 5.90323 7.0674 5.66024 7.58567 5.5701L7.41433 4.58489C6.64212 4.71919 6.12955 5.09775 5.70151 5.41251C5.26814 5.7312 4.92224 5.98315 4.40194 6.08721L4.59806 7.06779ZM7.58567 5.5701C8.27882 5.44956 8.66249 5.50656 9.45669 5.57562L9.54331 4.57938C8.78128 4.51311 8.26018 4.43779 7.41433 4.58489L7.58567 5.5701ZM9.45669 5.57562C9.91667 5.61562 10.5139 5.73404 11.0108 5.84733C11.2561 5.90326 11.4713 5.95658 11.6249 5.9959C11.7017 6.01554 11.763 6.03164 11.8048 6.04275C11.8257 6.04831 11.8417 6.05262 11.8523 6.0555C11.8577 6.05694 11.8617 6.05803 11.8642 6.05873C11.8655 6.05908 11.8665 6.05934 11.8671 6.0595C11.8673 6.05958 11.8675 6.05963 11.8677 6.05966C11.8677 6.05968 11.8677 6.05969 11.8678 6.05969C11.8678 6.05969 11.8677 6.05969 11.8677 6.05969C11.8677 6.05968 11.8677 6.05968 12 5.5775C12.1323 5.09531 12.1323 5.0953 12.1322 5.09529C12.1322 5.09529 12.1322 5.09528 12.1321 5.09527C12.132 5.09524 12.1319 5.09521 12.1318 5.09518C12.1315 5.09511 12.1312 5.09501 12.1308 5.09489C12.1299 5.09465 12.1286 5.09432 12.127 5.09388C12.1239 5.09302 12.1193 5.09177 12.1133 5.09015C12.1014 5.08693 12.084 5.08227 12.0618 5.07635C12.0172 5.0645 11.9529 5.0476 11.8728 5.0271C11.7127 4.98614 11.4888 4.93064 11.2331 4.87235C10.728 4.7572 10.0752 4.62563 9.54331 4.57938L9.45669 5.57562Z" fill="white"/>
<path d="M10.5 16.6992L12 18.6992" stroke="white" stroke-linecap="round"/>
<path d="M12.9004 16L14.4004 18" stroke="white" stroke-linecap="round"/>
</svg>
