<svg width="24" height="24" viewBox="0 0 24 24" fill="none" xmlns="http://www.w3.org/2000/svg">
<path d="M12.1398 7.62012H6.86977C5.00977 7.62012 4.58977 8.55013 4.35977 9.70013L3.50977 13.7501H15.5098L14.6598 9.70013C14.4098 8.55013 13.9998 7.62012 12.1398 7.62012Z" stroke="white" stroke-linecap="round" stroke-linejoin="round"/>
<path d="M16.9901 20.3602C17.0701 21.2402 16.3701 22.0002 15.4701 22.0002H14.0601C13.2501 22.0002 13.1401 21.6502 12.9901 21.2302L12.8401 20.7803C12.6301 20.1703 12.4901 19.7502 11.4101 19.7502H7.57013C6.49013 19.7502 6.33012 20.2203 6.14012 20.7803L5.99013 21.2302C5.85013 21.6602 5.74012 22.0002 4.92012 22.0002H3.51012C2.61012 22.0002 1.90013 21.2402 1.99013 20.3602L2.41013 15.7902C2.52013 14.6602 2.73012 13.7402 4.70012 13.7402H14.2701C16.2401 13.7402 16.4501 14.6602 16.5601 15.7902L16.9901 20.3602Z" stroke="white" stroke-linecap="round" stroke-linejoin="round"/>
<path d="M3.5 11.5H2.75" stroke="white" stroke-linecap="round" stroke-linejoin="round"/>
<path d="M5 16.75H7.25" stroke="white" stroke-linecap="round" stroke-linejoin="round"/>
<path d="M11.75 16.75H14" stroke="white" stroke-linecap="round" stroke-linejoin="round"/>
<path d="M22 6C22 6.75 21.79 7.46 21.42 8.06C21.21 8.42 20.94 8.74 20.63 9C19.93 9.63 19.01 10 18 10C16.54 10 15.27 9.22 14.58 8.06C14.21 7.46 14 6.75 14 6C14 4.74 14.58 3.61 15.5 2.88C16.19 2.33 17.06 2 18 2C20.21 2 22 3.79 22 6Z" stroke="white" stroke-miterlimit="10" stroke-linecap="round" stroke-linejoin="round"/>
<path d="M16.4404 5.99951L17.4304 6.9895L19.5604 5.01953" stroke="white" stroke-linecap="round" stroke-linejoin="round"/>
</svg>
