<svg width="18" height="16" viewBox="0 0 18 16" fill="none" xmlns="http://www.w3.org/2000/svg">
<path d="M4 7.48047C6.10938 7.48047 7.34961 6.2207 7.34961 4.05273C7.34961 1.93359 6.08008 0.634766 4 0.634766C1.92969 0.634766 0.650391 1.94336 0.650391 4.05273C0.650391 6.21094 1.89062 7.48047 4 7.48047ZM5.44531 15L14.8105 0.908203H12.5547L3.18945 15H5.44531ZM4 5.78125C3.28711 5.78125 2.87695 5.15625 2.87695 4.0625C2.87695 2.99805 3.29688 2.34375 4 2.34375C4.69336 2.34375 5.11328 2.99805 5.11328 4.0625C5.11328 5.14648 4.71289 5.78125 4 5.78125ZM14 15.1562C16.1094 15.1562 17.3496 13.8965 17.3496 11.7285C17.3496 9.60938 16.0801 8.31055 14 8.31055C11.9297 8.31055 10.6504 9.61914 10.6504 11.7285C10.6504 13.8867 11.9004 15.1562 14 15.1562ZM14 13.457C13.2871 13.457 12.8867 12.832 12.8867 11.7383C12.8867 10.6738 13.2969 10.0195 14 10.0195C14.7031 10.0195 15.123 10.6738 15.123 11.7383C15.123 12.8223 14.7129 13.457 14 13.457Z" fill="white"/>
</svg>
