<svg width="84" height="12" viewBox="0 0 84 12" fill="none" xmlns="http://www.w3.org/2000/svg">
<path fill-rule="evenodd" clip-rule="evenodd" d="M77.093 0.605098C77.4285 -0.201701 78.5715 -0.201698 78.907 0.605099L80.0388 3.32617C80.059 3.37476 80.1047 3.40795 80.1571 3.41216L83.0948 3.64767C83.9658 3.7175 84.3189 4.80448 83.6553 5.37293L81.4172 7.29015C81.3772 7.32439 81.3598 7.3781 81.372 7.42929L82.0558 10.2959C82.2585 11.1459 81.3339 11.8177 80.5882 11.3622L78.0732 9.82602C78.0282 9.79859 77.9718 9.79859 77.9268 9.82602L75.4118 11.3622C74.6661 11.8177 73.7415 11.1459 73.9442 10.2959L74.628 7.42929C74.6402 7.3781 74.6228 7.32439 74.5828 7.29015L72.3447 5.37293C71.6811 4.80447 72.0342 3.7175 72.9052 3.64767L75.8429 3.41216C75.8953 3.40795 75.941 3.37476 75.9612 3.32617L77.093 0.605098ZM78.1296 0.928458C78.0816 0.8132 77.9184 0.813202 77.8704 0.928458L76.7387 3.64953C76.5972 3.98965 76.2773 4.22204 75.9101 4.25148L72.9725 4.48699C72.8481 4.49697 72.7976 4.65225 72.8924 4.73346L75.1306 6.65068C75.4104 6.89032 75.5325 7.26634 75.4471 7.62466L74.7633 10.4913C74.7343 10.6127 74.8664 10.7087 74.9729 10.6436L77.4879 9.10745C77.8023 8.91543 78.1977 8.91543 78.5121 9.10745L81.0271 10.6436C81.1336 10.7087 81.2657 10.6127 81.2367 10.4913L80.5529 7.62466C80.4675 7.26634 80.5896 6.89032 80.8694 6.65068L83.1076 4.73346C83.2024 4.65225 83.1519 4.49697 83.0275 4.48699L80.0899 4.25148C79.7227 4.22204 79.4028 3.98965 79.2613 3.64953L78.1296 0.928458Z" fill="#FFEA29"/>
<path d="M77.4829 0.766791C77.6747 0.305763 78.3278 0.305764 78.5195 0.766791L79.6513 3.48786C79.7321 3.68222 79.9149 3.81501 80.1247 3.83183L83.0624 4.06734C83.5601 4.10724 83.7619 4.72837 83.3827 5.05321L81.1445 6.97043C80.9847 7.10737 80.9149 7.32224 80.9637 7.52699L81.6475 10.3936C81.7633 10.8793 81.235 11.2632 80.8089 11.0029L78.2939 9.46675C78.1142 9.35702 77.8883 9.35702 77.7086 9.46675L75.1936 11.0029C74.7675 11.2632 74.2392 10.8793 74.355 10.3936L75.0388 7.52699C75.0876 7.32224 75.0178 7.10737 74.858 6.97043L72.6198 5.05321C72.2406 4.72837 72.4424 4.10724 72.9401 4.06734L75.8778 3.83183C76.0876 3.81501 76.2704 3.68222 76.3512 3.48786L77.4829 0.766791Z" fill="#FFEA29"/>
<path fill-rule="evenodd" clip-rule="evenodd" d="M77.093 0.605098C77.4285 -0.201701 78.5715 -0.201698 78.907 0.605099L80.0388 3.32617C80.059 3.37476 80.1047 3.40795 80.1571 3.41216L83.0948 3.64767C83.9658 3.7175 84.3189 4.80448 83.6553 5.37293L81.4172 7.29015C81.3772 7.32439 81.3598 7.3781 81.372 7.42929L82.0558 10.2959C82.2585 11.1459 81.3339 11.8177 80.5882 11.3622L78.0732 9.82602C78.0282 9.79859 77.9718 9.79859 77.9268 9.82602L75.4118 11.3622C74.6661 11.8177 73.7415 11.1459 73.9442 10.2959L74.628 7.42929C74.6402 7.3781 74.6228 7.32439 74.5828 7.29015L72.3447 5.37293C71.6811 4.80447 72.0342 3.7175 72.9052 3.64767L75.8429 3.41216C75.8953 3.40795 75.941 3.37476 75.9612 3.32617L77.093 0.605098ZM78.1296 0.928458C78.0816 0.8132 77.9184 0.813202 77.8704 0.928458L76.7387 3.64953C76.5972 3.98965 76.2773 4.22204 75.9101 4.25148L72.9725 4.48699C72.8481 4.49697 72.7976 4.65225 72.8924 4.73346L75.1306 6.65068C75.4104 6.89032 75.5325 7.26634 75.4471 7.62466L74.7633 10.4913C74.7343 10.6127 74.8664 10.7087 74.9729 10.6436L77.4879 9.10745C77.8023 8.91543 78.1977 8.91543 78.5121 9.10745L81.0271 10.6436C81.1336 10.7087 81.2657 10.6127 81.2367 10.4913L80.5529 7.62466C80.4675 7.26634 80.5896 6.89032 80.8694 6.65068L83.1076 4.73346C83.2024 4.65225 83.1519 4.49697 83.0275 4.48699L80.0899 4.25148C79.7227 4.22204 79.4028 3.98965 79.2613 3.64953L78.1296 0.928458Z" fill="#FFEA29"/>
<path d="M5.48295 0.766791C5.6747 0.305763 6.3278 0.305764 6.51955 0.766791L7.6513 3.48786C7.73214 3.68222 7.91492 3.81501 8.12475 3.83183L11.0624 4.06734C11.5601 4.10724 11.7619 4.72837 11.3827 5.05321L9.14454 6.97043C8.98467 7.10737 8.91486 7.32224 8.9637 7.52699L9.64749 10.3936C9.76335 10.8793 9.23498 11.2632 8.80886 11.0029L6.29385 9.46675C6.11421 9.35702 5.88828 9.35702 5.70865 9.46675L3.19363 11.0029C2.76752 11.2632 2.23915 10.8793 2.35501 10.3936L3.0388 7.52699C3.08764 7.32224 3.01783 7.10737 2.85796 6.97043L0.619804 5.05321C0.240595 4.72837 0.442414 4.10724 0.940131 4.06734L3.87775 3.83183C4.08758 3.81501 4.27036 3.68222 4.35119 3.48786L5.48295 0.766791Z" fill="#FFEA29"/>
<path fill-rule="evenodd" clip-rule="evenodd" d="M5.09298 0.605098C5.42854 -0.201701 6.57146 -0.201698 6.90703 0.605099L8.03878 3.32617C8.05899 3.37476 8.10468 3.40795 8.15714 3.41216L11.0948 3.64767C11.9658 3.7175 12.3189 4.80448 11.6553 5.37293L9.41718 7.29015C9.37721 7.32439 9.35976 7.3781 9.37197 7.42929L10.0558 10.2959C10.2585 11.1459 9.33387 11.8177 8.58816 11.3622L6.07315 9.82602C6.02824 9.79859 5.97176 9.79859 5.92685 9.82602L3.41184 11.3622C2.66613 11.8177 1.7415 11.1459 1.94424 10.2959L2.62803 7.42929C2.64024 7.3781 2.62279 7.32439 2.58282 7.29015L0.344666 5.37293C-0.318949 4.80447 0.0342353 3.7175 0.905239 3.64767L3.84286 3.41216C3.89532 3.40795 3.94101 3.37476 3.96122 3.32617L5.09298 0.605098ZM6.12958 0.928458C6.08164 0.8132 5.91836 0.813202 5.87043 0.928458L4.73867 3.64953C4.5972 3.98965 4.27734 4.22204 3.91015 4.25148L0.972528 4.48699C0.848097 4.49697 0.797644 4.65225 0.892445 4.73346L3.1306 6.65068C3.41036 6.89032 3.53254 7.26634 3.44707 7.62466L2.76328 10.4913C2.73431 10.6127 2.8664 10.7087 2.97293 10.6436L5.48795 9.10745C5.80231 8.91543 6.19769 8.91543 6.51206 9.10745L9.02707 10.6436C9.1336 10.7087 9.26569 10.6127 9.23673 10.4913L8.55293 7.62466C8.46746 7.26634 8.58964 6.89032 8.8694 6.65068L11.1076 4.73346C11.2024 4.65225 11.1519 4.49697 11.0275 4.48699L8.08985 4.25148C7.72266 4.22204 7.4028 3.98965 7.26133 3.64953L6.12958 0.928458Z" fill="#FFEA29"/>
<path d="M23.4829 0.766791C23.6747 0.305763 24.3278 0.305764 24.5195 0.766791L25.6513 3.48786C25.7321 3.68222 25.9149 3.81501 26.1247 3.83183L29.0624 4.06734C29.5601 4.10724 29.7619 4.72837 29.3827 5.05321L27.1445 6.97043C26.9847 7.10737 26.9149 7.32224 26.9637 7.52699L27.6475 10.3936C27.7633 10.8793 27.235 11.2632 26.8089 11.0029L24.2939 9.46675C24.1142 9.35702 23.8883 9.35702 23.7086 9.46675L21.1936 11.0029C20.7675 11.2632 20.2392 10.8793 20.355 10.3936L21.0388 7.52699C21.0876 7.32224 21.0178 7.10737 20.858 6.97043L18.6198 5.05321C18.2406 4.72837 18.4424 4.10724 18.9401 4.06734L21.8778 3.83183C22.0876 3.81501 22.2704 3.68222 22.3512 3.48786L23.4829 0.766791Z" fill="#FFEA29"/>
<path fill-rule="evenodd" clip-rule="evenodd" d="M23.093 0.605098C23.4285 -0.201701 24.5715 -0.201698 24.907 0.605099L26.0388 3.32617C26.059 3.37476 26.1047 3.40795 26.1571 3.41216L29.0948 3.64767C29.9658 3.7175 30.3189 4.80448 29.6553 5.37293L27.4172 7.29015C27.3772 7.32439 27.3598 7.3781 27.372 7.42929L28.0558 10.2959C28.2585 11.1459 27.3339 11.8177 26.5882 11.3622L24.0732 9.82602C24.0282 9.79859 23.9718 9.79859 23.9268 9.82602L21.4118 11.3622C20.6661 11.8177 19.7415 11.1459 19.9442 10.2959L20.628 7.42929C20.6402 7.3781 20.6228 7.32439 20.5828 7.29015L18.3447 5.37293C17.6811 4.80447 18.0342 3.7175 18.9052 3.64767L21.8429 3.41216C21.8953 3.40795 21.941 3.37476 21.9612 3.32617L23.093 0.605098ZM24.1296 0.928458C24.0816 0.8132 23.9184 0.813202 23.8704 0.928458L22.7387 3.64953C22.5972 3.98965 22.2773 4.22204 21.9101 4.25148L18.9725 4.48699C18.8481 4.49697 18.7976 4.65225 18.8924 4.73346L21.1306 6.65068C21.4104 6.89032 21.5325 7.26634 21.4471 7.62466L20.7633 10.4913C20.7343 10.6127 20.8664 10.7087 20.9729 10.6436L23.4879 9.10745C23.8023 8.91543 24.1977 8.91543 24.5121 9.10745L27.0271 10.6436C27.1336 10.7087 27.2657 10.6127 27.2367 10.4913L26.5529 7.62466C26.4675 7.26634 26.5896 6.89032 26.8694 6.65068L29.1076 4.73346C29.2024 4.65225 29.1519 4.49697 29.0275 4.48699L26.0899 4.25148C25.7227 4.22204 25.4028 3.98965 25.2613 3.64953L24.1296 0.928458Z" fill="#FFEA29"/>
<path d="M41.4829 0.766791C41.6747 0.305763 42.3278 0.305764 42.5195 0.766791L43.6513 3.48786C43.7321 3.68222 43.9149 3.81501 44.1247 3.83183L47.0624 4.06734C47.5601 4.10724 47.7619 4.72837 47.3827 5.05321L45.1445 6.97043C44.9847 7.10737 44.9149 7.32224 44.9637 7.52699L45.6475 10.3936C45.7633 10.8793 45.235 11.2632 44.8089 11.0029L42.2939 9.46675C42.1142 9.35702 41.8883 9.35702 41.7086 9.46675L39.1936 11.0029C38.7675 11.2632 38.2392 10.8793 38.355 10.3936L39.0388 7.52699C39.0876 7.32224 39.0178 7.10737 38.858 6.97043L36.6198 5.05321C36.2406 4.72837 36.4424 4.10724 36.9401 4.06734L39.8778 3.83183C40.0876 3.81501 40.2704 3.68222 40.3512 3.48786L41.4829 0.766791Z" fill="#FFEA29"/>
<path fill-rule="evenodd" clip-rule="evenodd" d="M41.093 0.605098C41.4285 -0.201701 42.5715 -0.201698 42.907 0.605099L44.0388 3.32617C44.059 3.37476 44.1047 3.40795 44.1571 3.41216L47.0948 3.64767C47.9658 3.7175 48.3189 4.80448 47.6553 5.37293L45.4172 7.29015C45.3772 7.32439 45.3598 7.3781 45.372 7.42929L46.0558 10.2959C46.2585 11.1459 45.3339 11.8177 44.5882 11.3622L42.0732 9.82602C42.0282 9.79859 41.9718 9.79859 41.9268 9.82602L39.4118 11.3622C38.6661 11.8177 37.7415 11.1459 37.9442 10.2959L38.628 7.42929C38.6402 7.3781 38.6228 7.32439 38.5828 7.29015L36.3447 5.37293C35.6811 4.80447 36.0342 3.7175 36.9052 3.64767L39.8429 3.41216C39.8953 3.40795 39.941 3.37476 39.9612 3.32617L41.093 0.605098ZM42.1296 0.928458C42.0816 0.8132 41.9184 0.813202 41.8704 0.928458L40.7387 3.64953C40.5972 3.98965 40.2773 4.22204 39.9101 4.25148L36.9725 4.48699C36.8481 4.49697 36.7976 4.65225 36.8924 4.73346L39.1306 6.65068C39.4104 6.89032 39.5325 7.26634 39.4471 7.62466L38.7633 10.4913C38.7343 10.6127 38.8664 10.7087 38.9729 10.6436L41.4879 9.10745C41.8023 8.91543 42.1977 8.91543 42.5121 9.10745L45.0271 10.6436C45.1336 10.7087 45.2657 10.6127 45.2367 10.4913L44.5529 7.62466C44.4675 7.26634 44.5896 6.89032 44.8694 6.65068L47.1076 4.73346C47.2024 4.65225 47.1519 4.49697 47.0275 4.48699L44.0899 4.25148C43.7227 4.22204 43.4028 3.98965 43.2613 3.64953L42.1296 0.928458Z" fill="#FFEA29"/>
<path fill-rule="evenodd" clip-rule="evenodd" d="M59.093 0.605098C59.4285 -0.201701 60.5715 -0.201698 60.907 0.605099L62.0388 3.32617C62.059 3.37476 62.1047 3.40795 62.1571 3.41216L65.0948 3.64767C65.9658 3.7175 66.3189 4.80448 65.6553 5.37293L63.4172 7.29015C63.3772 7.32439 63.3598 7.3781 63.372 7.42929L64.0558 10.2959C64.2585 11.1459 63.3339 11.8177 62.5882 11.3622L60.0732 9.82602C60.0282 9.79859 59.9718 9.79859 59.9268 9.82602L57.4118 11.3622C56.6661 11.8177 55.7415 11.1459 55.9442 10.2959L56.628 7.42929C56.6402 7.3781 56.6228 7.32439 56.5828 7.29015L54.3447 5.37293C53.6811 4.80447 54.0342 3.7175 54.9052 3.64767L57.8429 3.41216C57.8953 3.40795 57.941 3.37476 57.9612 3.32617L59.093 0.605098ZM60.1296 0.928458C60.0816 0.8132 59.9184 0.813202 59.8704 0.928458L58.7387 3.64953C58.5972 3.98965 58.2773 4.22204 57.9101 4.25148L54.9725 4.48699C54.8481 4.49697 54.7976 4.65225 54.8924 4.73346L57.1306 6.65068C57.4104 6.89032 57.5325 7.26634 57.4471 7.62466L56.7633 10.4913C56.7343 10.6127 56.8664 10.7087 56.9729 10.6436L59.4879 9.10745C59.8023 8.91543 60.1977 8.91543 60.5121 9.10745L63.0271 10.6436C63.1336 10.7087 63.2657 10.6127 63.2367 10.4913L62.5529 7.62466C62.4675 7.26634 62.5896 6.89032 62.8694 6.65068L65.1076 4.73346C65.2024 4.65225 65.1519 4.49697 65.0275 4.48699L62.0899 4.25148C61.7227 4.22204 61.4028 3.98965 61.2613 3.64953L60.1296 0.928458Z" fill="#FFEA29"/>
<path fill-rule="evenodd" clip-rule="evenodd" d="M60 0C59.6304 0 59.2608 0.201699 59.093 0.605098L57.9612 3.32617C57.941 3.37476 57.8953 3.40795 57.8429 3.41216L54.9052 3.64767C54.0342 3.7175 53.6811 4.80447 54.3447 5.37293L56.5828 7.29015C56.6228 7.32439 56.6402 7.3781 56.628 7.42929L55.9442 10.2959C55.7415 11.1459 56.6661 11.8177 57.4118 11.3622L59.9268 9.82602C59.9493 9.81231 59.9747 9.80545 60 9.80545V0Z" fill="#FFEA29"/>
<path d="M59.4829 0.766791C59.6747 0.305763 60.3278 0.305764 60.5195 0.766791L61.6513 3.48786C61.7321 3.68222 61.9149 3.81501 62.1247 3.83183L65.0624 4.06734C65.5601 4.10724 65.7619 4.72837 65.3827 5.05321L63.1445 6.97043C62.9847 7.10737 62.9149 7.32224 62.9637 7.52699L63.6475 10.3936C63.7633 10.8793 63.235 11.2632 62.8089 11.0029L60.2939 9.46675C60.1142 9.35702 59.8883 9.35702 59.7086 9.46675L57.1936 11.0029C56.7675 11.2632 56.2392 10.8793 56.355 10.3936L57.0388 7.52699C57.0876 7.32224 57.0178 7.10737 56.858 6.97043L54.6198 5.05321C54.2406 4.72837 54.4424 4.10724 54.9401 4.06734L57.8778 3.83183C58.0876 3.81501 58.2704 3.68222 58.3512 3.48786L59.4829 0.766791Z" fill="#FFEA29"/>
<path fill-rule="evenodd" clip-rule="evenodd" d="M59.093 0.605098C59.4285 -0.201701 60.5715 -0.201698 60.907 0.605099L62.0388 3.32617C62.059 3.37476 62.1047 3.40795 62.1571 3.41216L65.0948 3.64767C65.9658 3.7175 66.3189 4.80448 65.6553 5.37293L63.4172 7.29015C63.3772 7.32439 63.3598 7.3781 63.372 7.42929L64.0558 10.2959C64.2585 11.1459 63.3339 11.8177 62.5882 11.3622L60.0732 9.82602C60.0282 9.79859 59.9718 9.79859 59.9268 9.82602L57.4118 11.3622C56.6661 11.8177 55.7415 11.1459 55.9442 10.2959L56.628 7.42929C56.6402 7.3781 56.6228 7.32439 56.5828 7.29015L54.3447 5.37293C53.6811 4.80447 54.0342 3.7175 54.9052 3.64767L57.8429 3.41216C57.8953 3.40795 57.941 3.37476 57.9612 3.32617L59.093 0.605098ZM60.1296 0.928458C60.0816 0.8132 59.9184 0.813202 59.8704 0.928458L58.7387 3.64953C58.5972 3.98965 58.2773 4.22204 57.9101 4.25148L54.9725 4.48699C54.8481 4.49697 54.7976 4.65225 54.8924 4.73346L57.1306 6.65068C57.4104 6.89032 57.5325 7.26634 57.4471 7.62466L56.7633 10.4913C56.7343 10.6127 56.8664 10.7087 56.9729 10.6436L59.4879 9.10745C59.8023 8.91543 60.1977 8.91543 60.5121 9.10745L63.0271 10.6436C63.1336 10.7087 63.2657 10.6127 63.2367 10.4913L62.5529 7.62466C62.4675 7.26634 62.5896 6.89032 62.8694 6.65068L65.1076 4.73346C65.2024 4.65225 65.1519 4.49697 65.0275 4.48699L62.0899 4.25148C61.7227 4.22204 61.4028 3.98965 61.2613 3.64953L60.1296 0.928458Z" fill="#FFEA29"/>
</svg>
